G04 #@! TF.GenerationSoftware,KiCad,Pcbnew,(5.0.1-3-g963ef8bb5)*
G04 #@! TF.CreationDate,2019-02-13T22:27:56+01:00*
G04 #@! TF.ProjectId,main,6D61696E2E6B696361645F7063620000,rev?*
G04 #@! TF.SameCoordinates,Original*
G04 #@! TF.FileFunction,Legend,Bot*
G04 #@! TF.FilePolarity,Positive*
%FSLAX46Y46*%
G04 Gerber Fmt 4.6, Leading zero omitted, Abs format (unit mm)*
G04 Created by KiCad (PCBNEW (5.0.1-3-g963ef8bb5)) date 2019 February 13, Wednesday 22:27:56*
%MOMM*%
%LPD*%
G01*
G04 APERTURE LIST*
%ADD10C,0.300000*%
%ADD11C,0.200000*%
G04 APERTURE END LIST*
D10*
X90058571Y-101905714D02*
X88772857Y-103834285D01*
X88558571Y-103548571D02*
X88558571Y-102548571D01*
X88558571Y-102691428D02*
X88487142Y-102620000D01*
X88344285Y-102548571D01*
X88130000Y-102548571D01*
X87987142Y-102620000D01*
X87915714Y-102762857D01*
X87915714Y-103548571D01*
X87915714Y-102762857D02*
X87844285Y-102620000D01*
X87701428Y-102548571D01*
X87487142Y-102548571D01*
X87344285Y-102620000D01*
X87272857Y-102762857D01*
X87272857Y-103548571D01*
X85487142Y-101977142D02*
X86772857Y-103905714D01*
D11*
X101930476Y-111782380D02*
X102263809Y-111306190D01*
X102501904Y-111782380D02*
X102501904Y-110782380D01*
X102120952Y-110782380D01*
X102025714Y-110830000D01*
X101978095Y-110877619D01*
X101930476Y-110972857D01*
X101930476Y-111115714D01*
X101978095Y-111210952D01*
X102025714Y-111258571D01*
X102120952Y-111306190D01*
X102501904Y-111306190D01*
X101120952Y-111734761D02*
X101216190Y-111782380D01*
X101406666Y-111782380D01*
X101501904Y-111734761D01*
X101549523Y-111639523D01*
X101549523Y-111258571D01*
X101501904Y-111163333D01*
X101406666Y-111115714D01*
X101216190Y-111115714D01*
X101120952Y-111163333D01*
X101073333Y-111258571D01*
X101073333Y-111353809D01*
X101549523Y-111449047D01*
X100740000Y-111115714D02*
X100501904Y-111782380D01*
X100263809Y-111115714D01*
X99168571Y-110877619D02*
X99120952Y-110830000D01*
X99025714Y-110782380D01*
X98787619Y-110782380D01*
X98692380Y-110830000D01*
X98644761Y-110877619D01*
X98597142Y-110972857D01*
X98597142Y-111068095D01*
X98644761Y-111210952D01*
X99216190Y-111782380D01*
X98597142Y-111782380D01*
X98168571Y-111687142D02*
X98120952Y-111734761D01*
X98168571Y-111782380D01*
X98216190Y-111734761D01*
X98168571Y-111687142D01*
X98168571Y-111782380D01*
X97501904Y-110782380D02*
X97406666Y-110782380D01*
X97311428Y-110830000D01*
X97263809Y-110877619D01*
X97216190Y-110972857D01*
X97168571Y-111163333D01*
X97168571Y-111401428D01*
X97216190Y-111591904D01*
X97263809Y-111687142D01*
X97311428Y-111734761D01*
X97406666Y-111782380D01*
X97501904Y-111782380D01*
X97597142Y-111734761D01*
X97644761Y-111687142D01*
X97692380Y-111591904D01*
X97740000Y-111401428D01*
X97740000Y-111163333D01*
X97692380Y-110972857D01*
X97644761Y-110877619D01*
X97597142Y-110830000D01*
X97501904Y-110782380D01*
X102073333Y-112815714D02*
X102073333Y-113625238D01*
X102120952Y-113720476D01*
X102168571Y-113768095D01*
X102263809Y-113815714D01*
X102406666Y-113815714D01*
X102501904Y-113768095D01*
X102073333Y-113434761D02*
X102168571Y-113482380D01*
X102359047Y-113482380D01*
X102454285Y-113434761D01*
X102501904Y-113387142D01*
X102549523Y-113291904D01*
X102549523Y-113006190D01*
X102501904Y-112910952D01*
X102454285Y-112863333D01*
X102359047Y-112815714D01*
X102168571Y-112815714D01*
X102073333Y-112863333D01*
X101597142Y-113482380D02*
X101597142Y-112815714D01*
X101597142Y-112482380D02*
X101644761Y-112530000D01*
X101597142Y-112577619D01*
X101549523Y-112530000D01*
X101597142Y-112482380D01*
X101597142Y-112577619D01*
X101263809Y-112815714D02*
X100882857Y-112815714D01*
X101120952Y-112482380D02*
X101120952Y-113339523D01*
X101073333Y-113434761D01*
X100978095Y-113482380D01*
X100882857Y-113482380D01*
X100549523Y-113482380D02*
X100549523Y-112482380D01*
X100120952Y-113482380D02*
X100120952Y-112958571D01*
X100168571Y-112863333D01*
X100263809Y-112815714D01*
X100406666Y-112815714D01*
X100501904Y-112863333D01*
X100549523Y-112910952D01*
X99216190Y-112815714D02*
X99216190Y-113482380D01*
X99644761Y-112815714D02*
X99644761Y-113339523D01*
X99597142Y-113434761D01*
X99501904Y-113482380D01*
X99359047Y-113482380D01*
X99263809Y-113434761D01*
X99216190Y-113387142D01*
X98740000Y-113482380D02*
X98740000Y-112482380D01*
X98740000Y-112863333D02*
X98644761Y-112815714D01*
X98454285Y-112815714D01*
X98359047Y-112863333D01*
X98311428Y-112910952D01*
X98263809Y-113006190D01*
X98263809Y-113291904D01*
X98311428Y-113387142D01*
X98359047Y-113434761D01*
X98454285Y-113482380D01*
X98644761Y-113482380D01*
X98740000Y-113434761D01*
X97120952Y-112434761D02*
X97978095Y-113720476D01*
X96882857Y-113482380D02*
X96359047Y-112815714D01*
X96882857Y-112815714D02*
X96359047Y-113482380D01*
X96073333Y-112815714D02*
X95835238Y-113482380D01*
X95597142Y-112815714D02*
X95835238Y-113482380D01*
X95930476Y-113720476D01*
X95978095Y-113768095D01*
X96073333Y-113815714D01*
X95073333Y-113482380D02*
X95168571Y-113434761D01*
X95216190Y-113339523D01*
X95216190Y-112482380D01*
X94549523Y-113482380D02*
X94644761Y-113434761D01*
X94692380Y-113387142D01*
X94740000Y-113291904D01*
X94740000Y-113006190D01*
X94692380Y-112910952D01*
X94644761Y-112863333D01*
X94549523Y-112815714D01*
X94406666Y-112815714D01*
X94311428Y-112863333D01*
X94263809Y-112910952D01*
X94216190Y-113006190D01*
X94216190Y-113291904D01*
X94263809Y-113387142D01*
X94311428Y-113434761D01*
X94406666Y-113482380D01*
X94549523Y-113482380D01*
X93787619Y-113482380D02*
X93787619Y-112815714D01*
X93787619Y-112910952D02*
X93740000Y-112863333D01*
X93644761Y-112815714D01*
X93501904Y-112815714D01*
X93406666Y-112863333D01*
X93359047Y-112958571D01*
X93359047Y-113482380D01*
X93359047Y-112958571D02*
X93311428Y-112863333D01*
X93216190Y-112815714D01*
X93073333Y-112815714D01*
X92978095Y-112863333D01*
X92930476Y-112958571D01*
X92930476Y-113482380D01*
X92073333Y-113434761D02*
X92168571Y-113482380D01*
X92359047Y-113482380D01*
X92454285Y-113434761D01*
X92501904Y-113339523D01*
X92501904Y-112958571D01*
X92454285Y-112863333D01*
X92359047Y-112815714D01*
X92168571Y-112815714D01*
X92073333Y-112863333D01*
X92025714Y-112958571D01*
X92025714Y-113053809D01*
X92501904Y-113149047D01*
X90882857Y-112434761D02*
X91740000Y-113720476D01*
X102073333Y-115182380D02*
X102073333Y-114658571D01*
X102120952Y-114563333D01*
X102216190Y-114515714D01*
X102406666Y-114515714D01*
X102501904Y-114563333D01*
X102073333Y-115134761D02*
X102168571Y-115182380D01*
X102406666Y-115182380D01*
X102501904Y-115134761D01*
X102549523Y-115039523D01*
X102549523Y-114944285D01*
X102501904Y-114849047D01*
X102406666Y-114801428D01*
X102168571Y-114801428D01*
X102073333Y-114753809D01*
X101597142Y-115182380D02*
X101597142Y-114515714D01*
X101597142Y-114706190D02*
X101549523Y-114610952D01*
X101501904Y-114563333D01*
X101406666Y-114515714D01*
X101311428Y-114515714D01*
X100549523Y-115182380D02*
X100549523Y-114182380D01*
X100549523Y-115134761D02*
X100644761Y-115182380D01*
X100835238Y-115182380D01*
X100930476Y-115134761D01*
X100978095Y-115087142D01*
X101025714Y-114991904D01*
X101025714Y-114706190D01*
X100978095Y-114610952D01*
X100930476Y-114563333D01*
X100835238Y-114515714D01*
X100644761Y-114515714D01*
X100549523Y-114563333D01*
X99644761Y-114515714D02*
X99644761Y-115182380D01*
X100073333Y-114515714D02*
X100073333Y-115039523D01*
X100025714Y-115134761D01*
X99930476Y-115182380D01*
X99787619Y-115182380D01*
X99692380Y-115134761D01*
X99644761Y-115087142D01*
X99168571Y-115182380D02*
X99168571Y-114515714D01*
X99168571Y-114182380D02*
X99216190Y-114230000D01*
X99168571Y-114277619D01*
X99120952Y-114230000D01*
X99168571Y-114182380D01*
X99168571Y-114277619D01*
X98692380Y-114515714D02*
X98692380Y-115182380D01*
X98692380Y-114610952D02*
X98644761Y-114563333D01*
X98549523Y-114515714D01*
X98406666Y-114515714D01*
X98311428Y-114563333D01*
X98263809Y-114658571D01*
X98263809Y-115182380D01*
X97644761Y-115182380D02*
X97740000Y-115134761D01*
X97787619Y-115087142D01*
X97835238Y-114991904D01*
X97835238Y-114706190D01*
X97787619Y-114610952D01*
X97740000Y-114563333D01*
X97644761Y-114515714D01*
X97501904Y-114515714D01*
X97406666Y-114563333D01*
X97359047Y-114610952D01*
X97311428Y-114706190D01*
X97311428Y-114991904D01*
X97359047Y-115087142D01*
X97406666Y-115134761D01*
X97501904Y-115182380D01*
X97644761Y-115182380D01*
X96882857Y-114801428D02*
X96120952Y-114801428D01*
X95740000Y-114515714D02*
X95549523Y-115182380D01*
X95359047Y-114706190D01*
X95168571Y-115182380D01*
X94978095Y-114515714D01*
X94168571Y-115182380D02*
X94168571Y-114658571D01*
X94216190Y-114563333D01*
X94311428Y-114515714D01*
X94501904Y-114515714D01*
X94597142Y-114563333D01*
X94168571Y-115134761D02*
X94263809Y-115182380D01*
X94501904Y-115182380D01*
X94597142Y-115134761D01*
X94644761Y-115039523D01*
X94644761Y-114944285D01*
X94597142Y-114849047D01*
X94501904Y-114801428D01*
X94263809Y-114801428D01*
X94168571Y-114753809D01*
X93740000Y-115134761D02*
X93644761Y-115182380D01*
X93454285Y-115182380D01*
X93359047Y-115134761D01*
X93311428Y-115039523D01*
X93311428Y-114991904D01*
X93359047Y-114896666D01*
X93454285Y-114849047D01*
X93597142Y-114849047D01*
X93692380Y-114801428D01*
X93740000Y-114706190D01*
X93740000Y-114658571D01*
X93692380Y-114563333D01*
X93597142Y-114515714D01*
X93454285Y-114515714D01*
X93359047Y-114563333D01*
X92882857Y-115182380D02*
X92882857Y-114182380D01*
X92454285Y-115182380D02*
X92454285Y-114658571D01*
X92501904Y-114563333D01*
X92597142Y-114515714D01*
X92740000Y-114515714D01*
X92835238Y-114563333D01*
X92882857Y-114610952D01*
X91978095Y-115182380D02*
X91978095Y-114515714D01*
X91978095Y-114182380D02*
X92025714Y-114230000D01*
X91978095Y-114277619D01*
X91930476Y-114230000D01*
X91978095Y-114182380D01*
X91978095Y-114277619D01*
X91501904Y-114515714D02*
X91501904Y-115182380D01*
X91501904Y-114610952D02*
X91454285Y-114563333D01*
X91359047Y-114515714D01*
X91216190Y-114515714D01*
X91120952Y-114563333D01*
X91073333Y-114658571D01*
X91073333Y-115182380D01*
X90168571Y-114515714D02*
X90168571Y-115325238D01*
X90216190Y-115420476D01*
X90263809Y-115468095D01*
X90359047Y-115515714D01*
X90501904Y-115515714D01*
X90597142Y-115468095D01*
X90168571Y-115134761D02*
X90263809Y-115182380D01*
X90454285Y-115182380D01*
X90549523Y-115134761D01*
X90597142Y-115087142D01*
X90644761Y-114991904D01*
X90644761Y-114706190D01*
X90597142Y-114610952D01*
X90549523Y-114563333D01*
X90454285Y-114515714D01*
X90263809Y-114515714D01*
X90168571Y-114563333D01*
X89692380Y-114801428D02*
X88930476Y-114801428D01*
X88454285Y-115182380D02*
X88454285Y-114515714D01*
X88454285Y-114610952D02*
X88406666Y-114563333D01*
X88311428Y-114515714D01*
X88168571Y-114515714D01*
X88073333Y-114563333D01*
X88025714Y-114658571D01*
X88025714Y-115182380D01*
X88025714Y-114658571D02*
X87978095Y-114563333D01*
X87882857Y-114515714D01*
X87740000Y-114515714D01*
X87644761Y-114563333D01*
X87597142Y-114658571D01*
X87597142Y-115182380D01*
X86692380Y-115182380D02*
X86692380Y-114658571D01*
X86740000Y-114563333D01*
X86835238Y-114515714D01*
X87025714Y-114515714D01*
X87120952Y-114563333D01*
X86692380Y-115134761D02*
X86787619Y-115182380D01*
X87025714Y-115182380D01*
X87120952Y-115134761D01*
X87168571Y-115039523D01*
X87168571Y-114944285D01*
X87120952Y-114849047D01*
X87025714Y-114801428D01*
X86787619Y-114801428D01*
X86692380Y-114753809D01*
X85787619Y-115134761D02*
X85882857Y-115182380D01*
X86073333Y-115182380D01*
X86168571Y-115134761D01*
X86216190Y-115087142D01*
X86263809Y-114991904D01*
X86263809Y-114706190D01*
X86216190Y-114610952D01*
X86168571Y-114563333D01*
X86073333Y-114515714D01*
X85882857Y-114515714D01*
X85787619Y-114563333D01*
X85359047Y-115182380D02*
X85359047Y-114182380D01*
X84930476Y-115182380D02*
X84930476Y-114658571D01*
X84978095Y-114563333D01*
X85073333Y-114515714D01*
X85216190Y-114515714D01*
X85311428Y-114563333D01*
X85359047Y-114610952D01*
X84454285Y-115182380D02*
X84454285Y-114515714D01*
X84454285Y-114182380D02*
X84501904Y-114230000D01*
X84454285Y-114277619D01*
X84406666Y-114230000D01*
X84454285Y-114182380D01*
X84454285Y-114277619D01*
X83978095Y-114515714D02*
X83978095Y-115182380D01*
X83978095Y-114610952D02*
X83930476Y-114563333D01*
X83835238Y-114515714D01*
X83692380Y-114515714D01*
X83597142Y-114563333D01*
X83549523Y-114658571D01*
X83549523Y-115182380D01*
X82692380Y-115134761D02*
X82787619Y-115182380D01*
X82978095Y-115182380D01*
X83073333Y-115134761D01*
X83120952Y-115039523D01*
X83120952Y-114658571D01*
X83073333Y-114563333D01*
X82978095Y-114515714D01*
X82787619Y-114515714D01*
X82692380Y-114563333D01*
X82644761Y-114658571D01*
X82644761Y-114753809D01*
X83120952Y-114849047D01*
X82216190Y-114801428D02*
X81454285Y-114801428D01*
X80549523Y-115182380D02*
X80549523Y-114182380D01*
X80549523Y-115134761D02*
X80644761Y-115182380D01*
X80835238Y-115182380D01*
X80930476Y-115134761D01*
X80978095Y-115087142D01*
X81025714Y-114991904D01*
X81025714Y-114706190D01*
X80978095Y-114610952D01*
X80930476Y-114563333D01*
X80835238Y-114515714D01*
X80644761Y-114515714D01*
X80549523Y-114563333D01*
X79692380Y-115134761D02*
X79787619Y-115182380D01*
X79978095Y-115182380D01*
X80073333Y-115134761D01*
X80120952Y-115039523D01*
X80120952Y-114658571D01*
X80073333Y-114563333D01*
X79978095Y-114515714D01*
X79787619Y-114515714D01*
X79692380Y-114563333D01*
X79644761Y-114658571D01*
X79644761Y-114753809D01*
X80120952Y-114849047D01*
X79073333Y-115182380D02*
X79168571Y-115134761D01*
X79216190Y-115039523D01*
X79216190Y-114182380D01*
X78263809Y-115182380D02*
X78263809Y-114658571D01*
X78311428Y-114563333D01*
X78406666Y-114515714D01*
X78597142Y-114515714D01*
X78692380Y-114563333D01*
X78263809Y-115134761D02*
X78359047Y-115182380D01*
X78597142Y-115182380D01*
X78692380Y-115134761D01*
X78740000Y-115039523D01*
X78740000Y-114944285D01*
X78692380Y-114849047D01*
X78597142Y-114801428D01*
X78359047Y-114801428D01*
X78263809Y-114753809D01*
X77882857Y-114515714D02*
X77644761Y-115182380D01*
X77406666Y-114515714D02*
X77644761Y-115182380D01*
X77740000Y-115420476D01*
X77787619Y-115468095D01*
X77882857Y-115515714D01*
X76644761Y-115134761D02*
X76740000Y-115182380D01*
X76930476Y-115182380D01*
X77025714Y-115134761D01*
X77073333Y-115039523D01*
X77073333Y-114658571D01*
X77025714Y-114563333D01*
X76930476Y-114515714D01*
X76740000Y-114515714D01*
X76644761Y-114563333D01*
X76597142Y-114658571D01*
X76597142Y-114753809D01*
X77073333Y-114849047D01*
X75740000Y-115182380D02*
X75740000Y-114182380D01*
X75740000Y-115134761D02*
X75835238Y-115182380D01*
X76025714Y-115182380D01*
X76120952Y-115134761D01*
X76168571Y-115087142D01*
X76216190Y-114991904D01*
X76216190Y-114706190D01*
X76168571Y-114610952D01*
X76120952Y-114563333D01*
X76025714Y-114515714D01*
X75835238Y-114515714D01*
X75740000Y-114563333D01*
X75263809Y-114801428D02*
X74501904Y-114801428D01*
X74073333Y-115134761D02*
X73978095Y-115182380D01*
X73787619Y-115182380D01*
X73692380Y-115134761D01*
X73644761Y-115039523D01*
X73644761Y-114991904D01*
X73692380Y-114896666D01*
X73787619Y-114849047D01*
X73930476Y-114849047D01*
X74025714Y-114801428D01*
X74073333Y-114706190D01*
X74073333Y-114658571D01*
X74025714Y-114563333D01*
X73930476Y-114515714D01*
X73787619Y-114515714D01*
X73692380Y-114563333D01*
X73359047Y-114515714D02*
X72978095Y-114515714D01*
X73216190Y-114182380D02*
X73216190Y-115039523D01*
X73168571Y-115134761D01*
X73073333Y-115182380D01*
X72978095Y-115182380D01*
X72216190Y-115182380D02*
X72216190Y-114658571D01*
X72263809Y-114563333D01*
X72359047Y-114515714D01*
X72549523Y-114515714D01*
X72644761Y-114563333D01*
X72216190Y-115134761D02*
X72311428Y-115182380D01*
X72549523Y-115182380D01*
X72644761Y-115134761D01*
X72692380Y-115039523D01*
X72692380Y-114944285D01*
X72644761Y-114849047D01*
X72549523Y-114801428D01*
X72311428Y-114801428D01*
X72216190Y-114753809D01*
X71740000Y-115182380D02*
X71740000Y-114515714D01*
X71740000Y-114706190D02*
X71692380Y-114610952D01*
X71644761Y-114563333D01*
X71549523Y-114515714D01*
X71454285Y-114515714D01*
X71263809Y-114515714D02*
X70882857Y-114515714D01*
X71120952Y-114182380D02*
X71120952Y-115039523D01*
X71073333Y-115134761D01*
X70978095Y-115182380D01*
X70882857Y-115182380D01*
M02*
