G04 #@! TF.GenerationSoftware,KiCad,Pcbnew,(5.0.1-3-g963ef8bb5)*
G04 #@! TF.CreationDate,2019-02-13T22:27:56+01:00*
G04 #@! TF.ProjectId,main,6D61696E2E6B696361645F7063620000,rev?*
G04 #@! TF.SameCoordinates,Original*
G04 #@! TF.FileFunction,Copper,L1,Top,Signal*
G04 #@! TF.FilePolarity,Positive*
%FSLAX46Y46*%
G04 Gerber Fmt 4.6, Leading zero omitted, Abs format (unit mm)*
G04 Created by KiCad (PCBNEW (5.0.1-3-g963ef8bb5)) date 2019 February 13, Wednesday 22:27:56*
%MOMM*%
%LPD*%
G01*
G04 APERTURE LIST*
G04 #@! TA.AperFunction,Conductor*
%ADD10C,0.100000*%
G04 #@! TD*
G04 #@! TA.AperFunction,SMDPad,CuDef*
%ADD11C,0.975000*%
G04 #@! TD*
G04 #@! TA.AperFunction,ComponentPad*
%ADD12R,1.700000X1.700000*%
G04 #@! TD*
G04 #@! TA.AperFunction,ComponentPad*
%ADD13O,1.700000X1.700000*%
G04 #@! TD*
G04 #@! TA.AperFunction,ComponentPad*
%ADD14C,1.200000*%
G04 #@! TD*
G04 #@! TA.AperFunction,ComponentPad*
%ADD15O,1.200000X1.750000*%
G04 #@! TD*
G04 #@! TA.AperFunction,ComponentPad*
%ADD16C,2.000000*%
G04 #@! TD*
G04 #@! TA.AperFunction,SMDPad,CuDef*
%ADD17R,1.700000X0.650000*%
G04 #@! TD*
G04 #@! TA.AperFunction,ComponentPad*
%ADD18R,1.600000X1.600000*%
G04 #@! TD*
G04 #@! TA.AperFunction,ComponentPad*
%ADD19O,1.600000X1.600000*%
G04 #@! TD*
G04 #@! TA.AperFunction,ComponentPad*
%ADD20R,1.400000X1.400000*%
G04 #@! TD*
G04 #@! TA.AperFunction,ComponentPad*
%ADD21C,1.400000*%
G04 #@! TD*
G04 #@! TA.AperFunction,ViaPad*
%ADD22C,0.800000*%
G04 #@! TD*
G04 #@! TA.AperFunction,Conductor*
%ADD23C,0.250000*%
G04 #@! TD*
G04 APERTURE END LIST*
D10*
G04 #@! TO.N,Net-(D1-Pad2)*
G04 #@! TO.C,D1*
G36*
X79612642Y-94551174D02*
X79636303Y-94554684D01*
X79659507Y-94560496D01*
X79682029Y-94568554D01*
X79703653Y-94578782D01*
X79724170Y-94591079D01*
X79743383Y-94605329D01*
X79761107Y-94621393D01*
X79777171Y-94639117D01*
X79791421Y-94658330D01*
X79803718Y-94678847D01*
X79813946Y-94700471D01*
X79822004Y-94722993D01*
X79827816Y-94746197D01*
X79831326Y-94769858D01*
X79832500Y-94793750D01*
X79832500Y-95706250D01*
X79831326Y-95730142D01*
X79827816Y-95753803D01*
X79822004Y-95777007D01*
X79813946Y-95799529D01*
X79803718Y-95821153D01*
X79791421Y-95841670D01*
X79777171Y-95860883D01*
X79761107Y-95878607D01*
X79743383Y-95894671D01*
X79724170Y-95908921D01*
X79703653Y-95921218D01*
X79682029Y-95931446D01*
X79659507Y-95939504D01*
X79636303Y-95945316D01*
X79612642Y-95948826D01*
X79588750Y-95950000D01*
X79101250Y-95950000D01*
X79077358Y-95948826D01*
X79053697Y-95945316D01*
X79030493Y-95939504D01*
X79007971Y-95931446D01*
X78986347Y-95921218D01*
X78965830Y-95908921D01*
X78946617Y-95894671D01*
X78928893Y-95878607D01*
X78912829Y-95860883D01*
X78898579Y-95841670D01*
X78886282Y-95821153D01*
X78876054Y-95799529D01*
X78867996Y-95777007D01*
X78862184Y-95753803D01*
X78858674Y-95730142D01*
X78857500Y-95706250D01*
X78857500Y-94793750D01*
X78858674Y-94769858D01*
X78862184Y-94746197D01*
X78867996Y-94722993D01*
X78876054Y-94700471D01*
X78886282Y-94678847D01*
X78898579Y-94658330D01*
X78912829Y-94639117D01*
X78928893Y-94621393D01*
X78946617Y-94605329D01*
X78965830Y-94591079D01*
X78986347Y-94578782D01*
X79007971Y-94568554D01*
X79030493Y-94560496D01*
X79053697Y-94554684D01*
X79077358Y-94551174D01*
X79101250Y-94550000D01*
X79588750Y-94550000D01*
X79612642Y-94551174D01*
X79612642Y-94551174D01*
G37*
D11*
G04 #@! TD*
G04 #@! TO.P,D1,2*
G04 #@! TO.N,Net-(D1-Pad2)*
X79345000Y-95250000D03*
D10*
G04 #@! TO.N,GND*
G04 #@! TO.C,D1*
G36*
X77737642Y-94551174D02*
X77761303Y-94554684D01*
X77784507Y-94560496D01*
X77807029Y-94568554D01*
X77828653Y-94578782D01*
X77849170Y-94591079D01*
X77868383Y-94605329D01*
X77886107Y-94621393D01*
X77902171Y-94639117D01*
X77916421Y-94658330D01*
X77928718Y-94678847D01*
X77938946Y-94700471D01*
X77947004Y-94722993D01*
X77952816Y-94746197D01*
X77956326Y-94769858D01*
X77957500Y-94793750D01*
X77957500Y-95706250D01*
X77956326Y-95730142D01*
X77952816Y-95753803D01*
X77947004Y-95777007D01*
X77938946Y-95799529D01*
X77928718Y-95821153D01*
X77916421Y-95841670D01*
X77902171Y-95860883D01*
X77886107Y-95878607D01*
X77868383Y-95894671D01*
X77849170Y-95908921D01*
X77828653Y-95921218D01*
X77807029Y-95931446D01*
X77784507Y-95939504D01*
X77761303Y-95945316D01*
X77737642Y-95948826D01*
X77713750Y-95950000D01*
X77226250Y-95950000D01*
X77202358Y-95948826D01*
X77178697Y-95945316D01*
X77155493Y-95939504D01*
X77132971Y-95931446D01*
X77111347Y-95921218D01*
X77090830Y-95908921D01*
X77071617Y-95894671D01*
X77053893Y-95878607D01*
X77037829Y-95860883D01*
X77023579Y-95841670D01*
X77011282Y-95821153D01*
X77001054Y-95799529D01*
X76992996Y-95777007D01*
X76987184Y-95753803D01*
X76983674Y-95730142D01*
X76982500Y-95706250D01*
X76982500Y-94793750D01*
X76983674Y-94769858D01*
X76987184Y-94746197D01*
X76992996Y-94722993D01*
X77001054Y-94700471D01*
X77011282Y-94678847D01*
X77023579Y-94658330D01*
X77037829Y-94639117D01*
X77053893Y-94621393D01*
X77071617Y-94605329D01*
X77090830Y-94591079D01*
X77111347Y-94578782D01*
X77132971Y-94568554D01*
X77155493Y-94560496D01*
X77178697Y-94554684D01*
X77202358Y-94551174D01*
X77226250Y-94550000D01*
X77713750Y-94550000D01*
X77737642Y-94551174D01*
X77737642Y-94551174D01*
G37*
D11*
G04 #@! TD*
G04 #@! TO.P,D1,1*
G04 #@! TO.N,GND*
X77470000Y-95250000D03*
D10*
G04 #@! TO.N,GND*
G04 #@! TO.C,D2*
G36*
X95850142Y-94551174D02*
X95873803Y-94554684D01*
X95897007Y-94560496D01*
X95919529Y-94568554D01*
X95941153Y-94578782D01*
X95961670Y-94591079D01*
X95980883Y-94605329D01*
X95998607Y-94621393D01*
X96014671Y-94639117D01*
X96028921Y-94658330D01*
X96041218Y-94678847D01*
X96051446Y-94700471D01*
X96059504Y-94722993D01*
X96065316Y-94746197D01*
X96068826Y-94769858D01*
X96070000Y-94793750D01*
X96070000Y-95706250D01*
X96068826Y-95730142D01*
X96065316Y-95753803D01*
X96059504Y-95777007D01*
X96051446Y-95799529D01*
X96041218Y-95821153D01*
X96028921Y-95841670D01*
X96014671Y-95860883D01*
X95998607Y-95878607D01*
X95980883Y-95894671D01*
X95961670Y-95908921D01*
X95941153Y-95921218D01*
X95919529Y-95931446D01*
X95897007Y-95939504D01*
X95873803Y-95945316D01*
X95850142Y-95948826D01*
X95826250Y-95950000D01*
X95338750Y-95950000D01*
X95314858Y-95948826D01*
X95291197Y-95945316D01*
X95267993Y-95939504D01*
X95245471Y-95931446D01*
X95223847Y-95921218D01*
X95203330Y-95908921D01*
X95184117Y-95894671D01*
X95166393Y-95878607D01*
X95150329Y-95860883D01*
X95136079Y-95841670D01*
X95123782Y-95821153D01*
X95113554Y-95799529D01*
X95105496Y-95777007D01*
X95099684Y-95753803D01*
X95096174Y-95730142D01*
X95095000Y-95706250D01*
X95095000Y-94793750D01*
X95096174Y-94769858D01*
X95099684Y-94746197D01*
X95105496Y-94722993D01*
X95113554Y-94700471D01*
X95123782Y-94678847D01*
X95136079Y-94658330D01*
X95150329Y-94639117D01*
X95166393Y-94621393D01*
X95184117Y-94605329D01*
X95203330Y-94591079D01*
X95223847Y-94578782D01*
X95245471Y-94568554D01*
X95267993Y-94560496D01*
X95291197Y-94554684D01*
X95314858Y-94551174D01*
X95338750Y-94550000D01*
X95826250Y-94550000D01*
X95850142Y-94551174D01*
X95850142Y-94551174D01*
G37*
D11*
G04 #@! TD*
G04 #@! TO.P,D2,1*
G04 #@! TO.N,GND*
X95582500Y-95250000D03*
D10*
G04 #@! TO.N,Net-(D2-Pad2)*
G04 #@! TO.C,D2*
G36*
X97725142Y-94551174D02*
X97748803Y-94554684D01*
X97772007Y-94560496D01*
X97794529Y-94568554D01*
X97816153Y-94578782D01*
X97836670Y-94591079D01*
X97855883Y-94605329D01*
X97873607Y-94621393D01*
X97889671Y-94639117D01*
X97903921Y-94658330D01*
X97916218Y-94678847D01*
X97926446Y-94700471D01*
X97934504Y-94722993D01*
X97940316Y-94746197D01*
X97943826Y-94769858D01*
X97945000Y-94793750D01*
X97945000Y-95706250D01*
X97943826Y-95730142D01*
X97940316Y-95753803D01*
X97934504Y-95777007D01*
X97926446Y-95799529D01*
X97916218Y-95821153D01*
X97903921Y-95841670D01*
X97889671Y-95860883D01*
X97873607Y-95878607D01*
X97855883Y-95894671D01*
X97836670Y-95908921D01*
X97816153Y-95921218D01*
X97794529Y-95931446D01*
X97772007Y-95939504D01*
X97748803Y-95945316D01*
X97725142Y-95948826D01*
X97701250Y-95950000D01*
X97213750Y-95950000D01*
X97189858Y-95948826D01*
X97166197Y-95945316D01*
X97142993Y-95939504D01*
X97120471Y-95931446D01*
X97098847Y-95921218D01*
X97078330Y-95908921D01*
X97059117Y-95894671D01*
X97041393Y-95878607D01*
X97025329Y-95860883D01*
X97011079Y-95841670D01*
X96998782Y-95821153D01*
X96988554Y-95799529D01*
X96980496Y-95777007D01*
X96974684Y-95753803D01*
X96971174Y-95730142D01*
X96970000Y-95706250D01*
X96970000Y-94793750D01*
X96971174Y-94769858D01*
X96974684Y-94746197D01*
X96980496Y-94722993D01*
X96988554Y-94700471D01*
X96998782Y-94678847D01*
X97011079Y-94658330D01*
X97025329Y-94639117D01*
X97041393Y-94621393D01*
X97059117Y-94605329D01*
X97078330Y-94591079D01*
X97098847Y-94578782D01*
X97120471Y-94568554D01*
X97142993Y-94560496D01*
X97166197Y-94554684D01*
X97189858Y-94551174D01*
X97213750Y-94550000D01*
X97701250Y-94550000D01*
X97725142Y-94551174D01*
X97725142Y-94551174D01*
G37*
D11*
G04 #@! TD*
G04 #@! TO.P,D2,2*
G04 #@! TO.N,Net-(D2-Pad2)*
X97457500Y-95250000D03*
D10*
G04 #@! TO.N,Net-(D3-Pad1)*
G04 #@! TO.C,D3*
G36*
X100930142Y-113601174D02*
X100953803Y-113604684D01*
X100977007Y-113610496D01*
X100999529Y-113618554D01*
X101021153Y-113628782D01*
X101041670Y-113641079D01*
X101060883Y-113655329D01*
X101078607Y-113671393D01*
X101094671Y-113689117D01*
X101108921Y-113708330D01*
X101121218Y-113728847D01*
X101131446Y-113750471D01*
X101139504Y-113772993D01*
X101145316Y-113796197D01*
X101148826Y-113819858D01*
X101150000Y-113843750D01*
X101150000Y-114756250D01*
X101148826Y-114780142D01*
X101145316Y-114803803D01*
X101139504Y-114827007D01*
X101131446Y-114849529D01*
X101121218Y-114871153D01*
X101108921Y-114891670D01*
X101094671Y-114910883D01*
X101078607Y-114928607D01*
X101060883Y-114944671D01*
X101041670Y-114958921D01*
X101021153Y-114971218D01*
X100999529Y-114981446D01*
X100977007Y-114989504D01*
X100953803Y-114995316D01*
X100930142Y-114998826D01*
X100906250Y-115000000D01*
X100418750Y-115000000D01*
X100394858Y-114998826D01*
X100371197Y-114995316D01*
X100347993Y-114989504D01*
X100325471Y-114981446D01*
X100303847Y-114971218D01*
X100283330Y-114958921D01*
X100264117Y-114944671D01*
X100246393Y-114928607D01*
X100230329Y-114910883D01*
X100216079Y-114891670D01*
X100203782Y-114871153D01*
X100193554Y-114849529D01*
X100185496Y-114827007D01*
X100179684Y-114803803D01*
X100176174Y-114780142D01*
X100175000Y-114756250D01*
X100175000Y-113843750D01*
X100176174Y-113819858D01*
X100179684Y-113796197D01*
X100185496Y-113772993D01*
X100193554Y-113750471D01*
X100203782Y-113728847D01*
X100216079Y-113708330D01*
X100230329Y-113689117D01*
X100246393Y-113671393D01*
X100264117Y-113655329D01*
X100283330Y-113641079D01*
X100303847Y-113628782D01*
X100325471Y-113618554D01*
X100347993Y-113610496D01*
X100371197Y-113604684D01*
X100394858Y-113601174D01*
X100418750Y-113600000D01*
X100906250Y-113600000D01*
X100930142Y-113601174D01*
X100930142Y-113601174D01*
G37*
D11*
G04 #@! TD*
G04 #@! TO.P,D3,1*
G04 #@! TO.N,Net-(D3-Pad1)*
X100662500Y-114300000D03*
D10*
G04 #@! TO.N,status*
G04 #@! TO.C,D3*
G36*
X102805142Y-113601174D02*
X102828803Y-113604684D01*
X102852007Y-113610496D01*
X102874529Y-113618554D01*
X102896153Y-113628782D01*
X102916670Y-113641079D01*
X102935883Y-113655329D01*
X102953607Y-113671393D01*
X102969671Y-113689117D01*
X102983921Y-113708330D01*
X102996218Y-113728847D01*
X103006446Y-113750471D01*
X103014504Y-113772993D01*
X103020316Y-113796197D01*
X103023826Y-113819858D01*
X103025000Y-113843750D01*
X103025000Y-114756250D01*
X103023826Y-114780142D01*
X103020316Y-114803803D01*
X103014504Y-114827007D01*
X103006446Y-114849529D01*
X102996218Y-114871153D01*
X102983921Y-114891670D01*
X102969671Y-114910883D01*
X102953607Y-114928607D01*
X102935883Y-114944671D01*
X102916670Y-114958921D01*
X102896153Y-114971218D01*
X102874529Y-114981446D01*
X102852007Y-114989504D01*
X102828803Y-114995316D01*
X102805142Y-114998826D01*
X102781250Y-115000000D01*
X102293750Y-115000000D01*
X102269858Y-114998826D01*
X102246197Y-114995316D01*
X102222993Y-114989504D01*
X102200471Y-114981446D01*
X102178847Y-114971218D01*
X102158330Y-114958921D01*
X102139117Y-114944671D01*
X102121393Y-114928607D01*
X102105329Y-114910883D01*
X102091079Y-114891670D01*
X102078782Y-114871153D01*
X102068554Y-114849529D01*
X102060496Y-114827007D01*
X102054684Y-114803803D01*
X102051174Y-114780142D01*
X102050000Y-114756250D01*
X102050000Y-113843750D01*
X102051174Y-113819858D01*
X102054684Y-113796197D01*
X102060496Y-113772993D01*
X102068554Y-113750471D01*
X102078782Y-113728847D01*
X102091079Y-113708330D01*
X102105329Y-113689117D01*
X102121393Y-113671393D01*
X102139117Y-113655329D01*
X102158330Y-113641079D01*
X102178847Y-113628782D01*
X102200471Y-113618554D01*
X102222993Y-113610496D01*
X102246197Y-113604684D01*
X102269858Y-113601174D01*
X102293750Y-113600000D01*
X102781250Y-113600000D01*
X102805142Y-113601174D01*
X102805142Y-113601174D01*
G37*
D11*
G04 #@! TD*
G04 #@! TO.P,D3,2*
G04 #@! TO.N,status*
X102537500Y-114300000D03*
D12*
G04 #@! TO.P,J1,1*
G04 #@! TO.N,Net-(J1-Pad1)*
X91440000Y-95250000D03*
D13*
G04 #@! TO.P,J1,2*
G04 #@! TO.N,Net-(J1-Pad2)*
X88900000Y-95250000D03*
G04 #@! TO.P,J1,3*
G04 #@! TO.N,Net-(J1-Pad3)*
X86360000Y-95250000D03*
G04 #@! TO.P,J1,4*
G04 #@! TO.N,Net-(J1-Pad4)*
X83820000Y-95250000D03*
G04 #@! TD*
D10*
G04 #@! TO.N,Net-(J2-Pad1)*
G04 #@! TO.C,J2*
G36*
X77844505Y-110886204D02*
X77868773Y-110889804D01*
X77892572Y-110895765D01*
X77915671Y-110904030D01*
X77937850Y-110914520D01*
X77958893Y-110927132D01*
X77978599Y-110941747D01*
X77996777Y-110958223D01*
X78013253Y-110976401D01*
X78027868Y-110996107D01*
X78040480Y-111017150D01*
X78050970Y-111039329D01*
X78059235Y-111062428D01*
X78065196Y-111086227D01*
X78068796Y-111110495D01*
X78070000Y-111134999D01*
X78070000Y-112385001D01*
X78068796Y-112409505D01*
X78065196Y-112433773D01*
X78059235Y-112457572D01*
X78050970Y-112480671D01*
X78040480Y-112502850D01*
X78027868Y-112523893D01*
X78013253Y-112543599D01*
X77996777Y-112561777D01*
X77978599Y-112578253D01*
X77958893Y-112592868D01*
X77937850Y-112605480D01*
X77915671Y-112615970D01*
X77892572Y-112624235D01*
X77868773Y-112630196D01*
X77844505Y-112633796D01*
X77820001Y-112635000D01*
X77119999Y-112635000D01*
X77095495Y-112633796D01*
X77071227Y-112630196D01*
X77047428Y-112624235D01*
X77024329Y-112615970D01*
X77002150Y-112605480D01*
X76981107Y-112592868D01*
X76961401Y-112578253D01*
X76943223Y-112561777D01*
X76926747Y-112543599D01*
X76912132Y-112523893D01*
X76899520Y-112502850D01*
X76889030Y-112480671D01*
X76880765Y-112457572D01*
X76874804Y-112433773D01*
X76871204Y-112409505D01*
X76870000Y-112385001D01*
X76870000Y-111134999D01*
X76871204Y-111110495D01*
X76874804Y-111086227D01*
X76880765Y-111062428D01*
X76889030Y-111039329D01*
X76899520Y-111017150D01*
X76912132Y-110996107D01*
X76926747Y-110976401D01*
X76943223Y-110958223D01*
X76961401Y-110941747D01*
X76981107Y-110927132D01*
X77002150Y-110914520D01*
X77024329Y-110904030D01*
X77047428Y-110895765D01*
X77071227Y-110889804D01*
X77095495Y-110886204D01*
X77119999Y-110885000D01*
X77820001Y-110885000D01*
X77844505Y-110886204D01*
X77844505Y-110886204D01*
G37*
D14*
G04 #@! TD*
G04 #@! TO.P,J2,1*
G04 #@! TO.N,Net-(J2-Pad1)*
X77470000Y-111760000D03*
D15*
G04 #@! TO.P,J2,2*
G04 #@! TO.N,GND*
X79470000Y-111760000D03*
G04 #@! TD*
D10*
G04 #@! TO.N,Net-(D1-Pad2)*
G04 #@! TO.C,R1*
G36*
X74865142Y-94551174D02*
X74888803Y-94554684D01*
X74912007Y-94560496D01*
X74934529Y-94568554D01*
X74956153Y-94578782D01*
X74976670Y-94591079D01*
X74995883Y-94605329D01*
X75013607Y-94621393D01*
X75029671Y-94639117D01*
X75043921Y-94658330D01*
X75056218Y-94678847D01*
X75066446Y-94700471D01*
X75074504Y-94722993D01*
X75080316Y-94746197D01*
X75083826Y-94769858D01*
X75085000Y-94793750D01*
X75085000Y-95706250D01*
X75083826Y-95730142D01*
X75080316Y-95753803D01*
X75074504Y-95777007D01*
X75066446Y-95799529D01*
X75056218Y-95821153D01*
X75043921Y-95841670D01*
X75029671Y-95860883D01*
X75013607Y-95878607D01*
X74995883Y-95894671D01*
X74976670Y-95908921D01*
X74956153Y-95921218D01*
X74934529Y-95931446D01*
X74912007Y-95939504D01*
X74888803Y-95945316D01*
X74865142Y-95948826D01*
X74841250Y-95950000D01*
X74353750Y-95950000D01*
X74329858Y-95948826D01*
X74306197Y-95945316D01*
X74282993Y-95939504D01*
X74260471Y-95931446D01*
X74238847Y-95921218D01*
X74218330Y-95908921D01*
X74199117Y-95894671D01*
X74181393Y-95878607D01*
X74165329Y-95860883D01*
X74151079Y-95841670D01*
X74138782Y-95821153D01*
X74128554Y-95799529D01*
X74120496Y-95777007D01*
X74114684Y-95753803D01*
X74111174Y-95730142D01*
X74110000Y-95706250D01*
X74110000Y-94793750D01*
X74111174Y-94769858D01*
X74114684Y-94746197D01*
X74120496Y-94722993D01*
X74128554Y-94700471D01*
X74138782Y-94678847D01*
X74151079Y-94658330D01*
X74165329Y-94639117D01*
X74181393Y-94621393D01*
X74199117Y-94605329D01*
X74218330Y-94591079D01*
X74238847Y-94578782D01*
X74260471Y-94568554D01*
X74282993Y-94560496D01*
X74306197Y-94554684D01*
X74329858Y-94551174D01*
X74353750Y-94550000D01*
X74841250Y-94550000D01*
X74865142Y-94551174D01*
X74865142Y-94551174D01*
G37*
D11*
G04 #@! TD*
G04 #@! TO.P,R1,2*
G04 #@! TO.N,Net-(D1-Pad2)*
X74597500Y-95250000D03*
D10*
G04 #@! TO.N,Net-(R1-Pad1)*
G04 #@! TO.C,R1*
G36*
X72990142Y-94551174D02*
X73013803Y-94554684D01*
X73037007Y-94560496D01*
X73059529Y-94568554D01*
X73081153Y-94578782D01*
X73101670Y-94591079D01*
X73120883Y-94605329D01*
X73138607Y-94621393D01*
X73154671Y-94639117D01*
X73168921Y-94658330D01*
X73181218Y-94678847D01*
X73191446Y-94700471D01*
X73199504Y-94722993D01*
X73205316Y-94746197D01*
X73208826Y-94769858D01*
X73210000Y-94793750D01*
X73210000Y-95706250D01*
X73208826Y-95730142D01*
X73205316Y-95753803D01*
X73199504Y-95777007D01*
X73191446Y-95799529D01*
X73181218Y-95821153D01*
X73168921Y-95841670D01*
X73154671Y-95860883D01*
X73138607Y-95878607D01*
X73120883Y-95894671D01*
X73101670Y-95908921D01*
X73081153Y-95921218D01*
X73059529Y-95931446D01*
X73037007Y-95939504D01*
X73013803Y-95945316D01*
X72990142Y-95948826D01*
X72966250Y-95950000D01*
X72478750Y-95950000D01*
X72454858Y-95948826D01*
X72431197Y-95945316D01*
X72407993Y-95939504D01*
X72385471Y-95931446D01*
X72363847Y-95921218D01*
X72343330Y-95908921D01*
X72324117Y-95894671D01*
X72306393Y-95878607D01*
X72290329Y-95860883D01*
X72276079Y-95841670D01*
X72263782Y-95821153D01*
X72253554Y-95799529D01*
X72245496Y-95777007D01*
X72239684Y-95753803D01*
X72236174Y-95730142D01*
X72235000Y-95706250D01*
X72235000Y-94793750D01*
X72236174Y-94769858D01*
X72239684Y-94746197D01*
X72245496Y-94722993D01*
X72253554Y-94700471D01*
X72263782Y-94678847D01*
X72276079Y-94658330D01*
X72290329Y-94639117D01*
X72306393Y-94621393D01*
X72324117Y-94605329D01*
X72343330Y-94591079D01*
X72363847Y-94578782D01*
X72385471Y-94568554D01*
X72407993Y-94560496D01*
X72431197Y-94554684D01*
X72454858Y-94551174D01*
X72478750Y-94550000D01*
X72966250Y-94550000D01*
X72990142Y-94551174D01*
X72990142Y-94551174D01*
G37*
D11*
G04 #@! TD*
G04 #@! TO.P,R1,1*
G04 #@! TO.N,Net-(R1-Pad1)*
X72722500Y-95250000D03*
D10*
G04 #@! TO.N,Net-(D2-Pad2)*
G04 #@! TO.C,R2*
G36*
X100598142Y-94551174D02*
X100621803Y-94554684D01*
X100645007Y-94560496D01*
X100667529Y-94568554D01*
X100689153Y-94578782D01*
X100709670Y-94591079D01*
X100728883Y-94605329D01*
X100746607Y-94621393D01*
X100762671Y-94639117D01*
X100776921Y-94658330D01*
X100789218Y-94678847D01*
X100799446Y-94700471D01*
X100807504Y-94722993D01*
X100813316Y-94746197D01*
X100816826Y-94769858D01*
X100818000Y-94793750D01*
X100818000Y-95706250D01*
X100816826Y-95730142D01*
X100813316Y-95753803D01*
X100807504Y-95777007D01*
X100799446Y-95799529D01*
X100789218Y-95821153D01*
X100776921Y-95841670D01*
X100762671Y-95860883D01*
X100746607Y-95878607D01*
X100728883Y-95894671D01*
X100709670Y-95908921D01*
X100689153Y-95921218D01*
X100667529Y-95931446D01*
X100645007Y-95939504D01*
X100621803Y-95945316D01*
X100598142Y-95948826D01*
X100574250Y-95950000D01*
X100086750Y-95950000D01*
X100062858Y-95948826D01*
X100039197Y-95945316D01*
X100015993Y-95939504D01*
X99993471Y-95931446D01*
X99971847Y-95921218D01*
X99951330Y-95908921D01*
X99932117Y-95894671D01*
X99914393Y-95878607D01*
X99898329Y-95860883D01*
X99884079Y-95841670D01*
X99871782Y-95821153D01*
X99861554Y-95799529D01*
X99853496Y-95777007D01*
X99847684Y-95753803D01*
X99844174Y-95730142D01*
X99843000Y-95706250D01*
X99843000Y-94793750D01*
X99844174Y-94769858D01*
X99847684Y-94746197D01*
X99853496Y-94722993D01*
X99861554Y-94700471D01*
X99871782Y-94678847D01*
X99884079Y-94658330D01*
X99898329Y-94639117D01*
X99914393Y-94621393D01*
X99932117Y-94605329D01*
X99951330Y-94591079D01*
X99971847Y-94578782D01*
X99993471Y-94568554D01*
X100015993Y-94560496D01*
X100039197Y-94554684D01*
X100062858Y-94551174D01*
X100086750Y-94550000D01*
X100574250Y-94550000D01*
X100598142Y-94551174D01*
X100598142Y-94551174D01*
G37*
D11*
G04 #@! TD*
G04 #@! TO.P,R2,1*
G04 #@! TO.N,Net-(D2-Pad2)*
X100330500Y-95250000D03*
D10*
G04 #@! TO.N,Net-(R2-Pad2)*
G04 #@! TO.C,R2*
G36*
X102473142Y-94551174D02*
X102496803Y-94554684D01*
X102520007Y-94560496D01*
X102542529Y-94568554D01*
X102564153Y-94578782D01*
X102584670Y-94591079D01*
X102603883Y-94605329D01*
X102621607Y-94621393D01*
X102637671Y-94639117D01*
X102651921Y-94658330D01*
X102664218Y-94678847D01*
X102674446Y-94700471D01*
X102682504Y-94722993D01*
X102688316Y-94746197D01*
X102691826Y-94769858D01*
X102693000Y-94793750D01*
X102693000Y-95706250D01*
X102691826Y-95730142D01*
X102688316Y-95753803D01*
X102682504Y-95777007D01*
X102674446Y-95799529D01*
X102664218Y-95821153D01*
X102651921Y-95841670D01*
X102637671Y-95860883D01*
X102621607Y-95878607D01*
X102603883Y-95894671D01*
X102584670Y-95908921D01*
X102564153Y-95921218D01*
X102542529Y-95931446D01*
X102520007Y-95939504D01*
X102496803Y-95945316D01*
X102473142Y-95948826D01*
X102449250Y-95950000D01*
X101961750Y-95950000D01*
X101937858Y-95948826D01*
X101914197Y-95945316D01*
X101890993Y-95939504D01*
X101868471Y-95931446D01*
X101846847Y-95921218D01*
X101826330Y-95908921D01*
X101807117Y-95894671D01*
X101789393Y-95878607D01*
X101773329Y-95860883D01*
X101759079Y-95841670D01*
X101746782Y-95821153D01*
X101736554Y-95799529D01*
X101728496Y-95777007D01*
X101722684Y-95753803D01*
X101719174Y-95730142D01*
X101718000Y-95706250D01*
X101718000Y-94793750D01*
X101719174Y-94769858D01*
X101722684Y-94746197D01*
X101728496Y-94722993D01*
X101736554Y-94700471D01*
X101746782Y-94678847D01*
X101759079Y-94658330D01*
X101773329Y-94639117D01*
X101789393Y-94621393D01*
X101807117Y-94605329D01*
X101826330Y-94591079D01*
X101846847Y-94578782D01*
X101868471Y-94568554D01*
X101890993Y-94560496D01*
X101914197Y-94554684D01*
X101937858Y-94551174D01*
X101961750Y-94550000D01*
X102449250Y-94550000D01*
X102473142Y-94551174D01*
X102473142Y-94551174D01*
G37*
D11*
G04 #@! TD*
G04 #@! TO.P,R2,2*
G04 #@! TO.N,Net-(R2-Pad2)*
X102205500Y-95250000D03*
D10*
G04 #@! TO.N,GND*
G04 #@! TO.C,R3*
G36*
X95850142Y-113601174D02*
X95873803Y-113604684D01*
X95897007Y-113610496D01*
X95919529Y-113618554D01*
X95941153Y-113628782D01*
X95961670Y-113641079D01*
X95980883Y-113655329D01*
X95998607Y-113671393D01*
X96014671Y-113689117D01*
X96028921Y-113708330D01*
X96041218Y-113728847D01*
X96051446Y-113750471D01*
X96059504Y-113772993D01*
X96065316Y-113796197D01*
X96068826Y-113819858D01*
X96070000Y-113843750D01*
X96070000Y-114756250D01*
X96068826Y-114780142D01*
X96065316Y-114803803D01*
X96059504Y-114827007D01*
X96051446Y-114849529D01*
X96041218Y-114871153D01*
X96028921Y-114891670D01*
X96014671Y-114910883D01*
X95998607Y-114928607D01*
X95980883Y-114944671D01*
X95961670Y-114958921D01*
X95941153Y-114971218D01*
X95919529Y-114981446D01*
X95897007Y-114989504D01*
X95873803Y-114995316D01*
X95850142Y-114998826D01*
X95826250Y-115000000D01*
X95338750Y-115000000D01*
X95314858Y-114998826D01*
X95291197Y-114995316D01*
X95267993Y-114989504D01*
X95245471Y-114981446D01*
X95223847Y-114971218D01*
X95203330Y-114958921D01*
X95184117Y-114944671D01*
X95166393Y-114928607D01*
X95150329Y-114910883D01*
X95136079Y-114891670D01*
X95123782Y-114871153D01*
X95113554Y-114849529D01*
X95105496Y-114827007D01*
X95099684Y-114803803D01*
X95096174Y-114780142D01*
X95095000Y-114756250D01*
X95095000Y-113843750D01*
X95096174Y-113819858D01*
X95099684Y-113796197D01*
X95105496Y-113772993D01*
X95113554Y-113750471D01*
X95123782Y-113728847D01*
X95136079Y-113708330D01*
X95150329Y-113689117D01*
X95166393Y-113671393D01*
X95184117Y-113655329D01*
X95203330Y-113641079D01*
X95223847Y-113628782D01*
X95245471Y-113618554D01*
X95267993Y-113610496D01*
X95291197Y-113604684D01*
X95314858Y-113601174D01*
X95338750Y-113600000D01*
X95826250Y-113600000D01*
X95850142Y-113601174D01*
X95850142Y-113601174D01*
G37*
D11*
G04 #@! TD*
G04 #@! TO.P,R3,1*
G04 #@! TO.N,GND*
X95582500Y-114300000D03*
D10*
G04 #@! TO.N,Net-(D3-Pad1)*
G04 #@! TO.C,R3*
G36*
X97725142Y-113601174D02*
X97748803Y-113604684D01*
X97772007Y-113610496D01*
X97794529Y-113618554D01*
X97816153Y-113628782D01*
X97836670Y-113641079D01*
X97855883Y-113655329D01*
X97873607Y-113671393D01*
X97889671Y-113689117D01*
X97903921Y-113708330D01*
X97916218Y-113728847D01*
X97926446Y-113750471D01*
X97934504Y-113772993D01*
X97940316Y-113796197D01*
X97943826Y-113819858D01*
X97945000Y-113843750D01*
X97945000Y-114756250D01*
X97943826Y-114780142D01*
X97940316Y-114803803D01*
X97934504Y-114827007D01*
X97926446Y-114849529D01*
X97916218Y-114871153D01*
X97903921Y-114891670D01*
X97889671Y-114910883D01*
X97873607Y-114928607D01*
X97855883Y-114944671D01*
X97836670Y-114958921D01*
X97816153Y-114971218D01*
X97794529Y-114981446D01*
X97772007Y-114989504D01*
X97748803Y-114995316D01*
X97725142Y-114998826D01*
X97701250Y-115000000D01*
X97213750Y-115000000D01*
X97189858Y-114998826D01*
X97166197Y-114995316D01*
X97142993Y-114989504D01*
X97120471Y-114981446D01*
X97098847Y-114971218D01*
X97078330Y-114958921D01*
X97059117Y-114944671D01*
X97041393Y-114928607D01*
X97025329Y-114910883D01*
X97011079Y-114891670D01*
X96998782Y-114871153D01*
X96988554Y-114849529D01*
X96980496Y-114827007D01*
X96974684Y-114803803D01*
X96971174Y-114780142D01*
X96970000Y-114756250D01*
X96970000Y-113843750D01*
X96971174Y-113819858D01*
X96974684Y-113796197D01*
X96980496Y-113772993D01*
X96988554Y-113750471D01*
X96998782Y-113728847D01*
X97011079Y-113708330D01*
X97025329Y-113689117D01*
X97041393Y-113671393D01*
X97059117Y-113655329D01*
X97078330Y-113641079D01*
X97098847Y-113628782D01*
X97120471Y-113618554D01*
X97142993Y-113610496D01*
X97166197Y-113604684D01*
X97189858Y-113601174D01*
X97213750Y-113600000D01*
X97701250Y-113600000D01*
X97725142Y-113601174D01*
X97725142Y-113601174D01*
G37*
D11*
G04 #@! TD*
G04 #@! TO.P,R3,2*
G04 #@! TO.N,Net-(D3-Pad1)*
X97457500Y-114300000D03*
D10*
G04 #@! TO.N,GND*
G04 #@! TO.C,R4*
G36*
X95850142Y-109791174D02*
X95873803Y-109794684D01*
X95897007Y-109800496D01*
X95919529Y-109808554D01*
X95941153Y-109818782D01*
X95961670Y-109831079D01*
X95980883Y-109845329D01*
X95998607Y-109861393D01*
X96014671Y-109879117D01*
X96028921Y-109898330D01*
X96041218Y-109918847D01*
X96051446Y-109940471D01*
X96059504Y-109962993D01*
X96065316Y-109986197D01*
X96068826Y-110009858D01*
X96070000Y-110033750D01*
X96070000Y-110946250D01*
X96068826Y-110970142D01*
X96065316Y-110993803D01*
X96059504Y-111017007D01*
X96051446Y-111039529D01*
X96041218Y-111061153D01*
X96028921Y-111081670D01*
X96014671Y-111100883D01*
X95998607Y-111118607D01*
X95980883Y-111134671D01*
X95961670Y-111148921D01*
X95941153Y-111161218D01*
X95919529Y-111171446D01*
X95897007Y-111179504D01*
X95873803Y-111185316D01*
X95850142Y-111188826D01*
X95826250Y-111190000D01*
X95338750Y-111190000D01*
X95314858Y-111188826D01*
X95291197Y-111185316D01*
X95267993Y-111179504D01*
X95245471Y-111171446D01*
X95223847Y-111161218D01*
X95203330Y-111148921D01*
X95184117Y-111134671D01*
X95166393Y-111118607D01*
X95150329Y-111100883D01*
X95136079Y-111081670D01*
X95123782Y-111061153D01*
X95113554Y-111039529D01*
X95105496Y-111017007D01*
X95099684Y-110993803D01*
X95096174Y-110970142D01*
X95095000Y-110946250D01*
X95095000Y-110033750D01*
X95096174Y-110009858D01*
X95099684Y-109986197D01*
X95105496Y-109962993D01*
X95113554Y-109940471D01*
X95123782Y-109918847D01*
X95136079Y-109898330D01*
X95150329Y-109879117D01*
X95166393Y-109861393D01*
X95184117Y-109845329D01*
X95203330Y-109831079D01*
X95223847Y-109818782D01*
X95245471Y-109808554D01*
X95267993Y-109800496D01*
X95291197Y-109794684D01*
X95314858Y-109791174D01*
X95338750Y-109790000D01*
X95826250Y-109790000D01*
X95850142Y-109791174D01*
X95850142Y-109791174D01*
G37*
D11*
G04 #@! TD*
G04 #@! TO.P,R4,1*
G04 #@! TO.N,GND*
X95582500Y-110490000D03*
D10*
G04 #@! TO.N,setup*
G04 #@! TO.C,R4*
G36*
X97725142Y-109791174D02*
X97748803Y-109794684D01*
X97772007Y-109800496D01*
X97794529Y-109808554D01*
X97816153Y-109818782D01*
X97836670Y-109831079D01*
X97855883Y-109845329D01*
X97873607Y-109861393D01*
X97889671Y-109879117D01*
X97903921Y-109898330D01*
X97916218Y-109918847D01*
X97926446Y-109940471D01*
X97934504Y-109962993D01*
X97940316Y-109986197D01*
X97943826Y-110009858D01*
X97945000Y-110033750D01*
X97945000Y-110946250D01*
X97943826Y-110970142D01*
X97940316Y-110993803D01*
X97934504Y-111017007D01*
X97926446Y-111039529D01*
X97916218Y-111061153D01*
X97903921Y-111081670D01*
X97889671Y-111100883D01*
X97873607Y-111118607D01*
X97855883Y-111134671D01*
X97836670Y-111148921D01*
X97816153Y-111161218D01*
X97794529Y-111171446D01*
X97772007Y-111179504D01*
X97748803Y-111185316D01*
X97725142Y-111188826D01*
X97701250Y-111190000D01*
X97213750Y-111190000D01*
X97189858Y-111188826D01*
X97166197Y-111185316D01*
X97142993Y-111179504D01*
X97120471Y-111171446D01*
X97098847Y-111161218D01*
X97078330Y-111148921D01*
X97059117Y-111134671D01*
X97041393Y-111118607D01*
X97025329Y-111100883D01*
X97011079Y-111081670D01*
X96998782Y-111061153D01*
X96988554Y-111039529D01*
X96980496Y-111017007D01*
X96974684Y-110993803D01*
X96971174Y-110970142D01*
X96970000Y-110946250D01*
X96970000Y-110033750D01*
X96971174Y-110009858D01*
X96974684Y-109986197D01*
X96980496Y-109962993D01*
X96988554Y-109940471D01*
X96998782Y-109918847D01*
X97011079Y-109898330D01*
X97025329Y-109879117D01*
X97041393Y-109861393D01*
X97059117Y-109845329D01*
X97078330Y-109831079D01*
X97098847Y-109818782D01*
X97120471Y-109808554D01*
X97142993Y-109800496D01*
X97166197Y-109794684D01*
X97189858Y-109791174D01*
X97213750Y-109790000D01*
X97701250Y-109790000D01*
X97725142Y-109791174D01*
X97725142Y-109791174D01*
G37*
D11*
G04 #@! TD*
G04 #@! TO.P,R4,2*
G04 #@! TO.N,setup*
X97457500Y-110490000D03*
D10*
G04 #@! TO.N,start*
G04 #@! TO.C,R5*
G36*
X102805142Y-109791174D02*
X102828803Y-109794684D01*
X102852007Y-109800496D01*
X102874529Y-109808554D01*
X102896153Y-109818782D01*
X102916670Y-109831079D01*
X102935883Y-109845329D01*
X102953607Y-109861393D01*
X102969671Y-109879117D01*
X102983921Y-109898330D01*
X102996218Y-109918847D01*
X103006446Y-109940471D01*
X103014504Y-109962993D01*
X103020316Y-109986197D01*
X103023826Y-110009858D01*
X103025000Y-110033750D01*
X103025000Y-110946250D01*
X103023826Y-110970142D01*
X103020316Y-110993803D01*
X103014504Y-111017007D01*
X103006446Y-111039529D01*
X102996218Y-111061153D01*
X102983921Y-111081670D01*
X102969671Y-111100883D01*
X102953607Y-111118607D01*
X102935883Y-111134671D01*
X102916670Y-111148921D01*
X102896153Y-111161218D01*
X102874529Y-111171446D01*
X102852007Y-111179504D01*
X102828803Y-111185316D01*
X102805142Y-111188826D01*
X102781250Y-111190000D01*
X102293750Y-111190000D01*
X102269858Y-111188826D01*
X102246197Y-111185316D01*
X102222993Y-111179504D01*
X102200471Y-111171446D01*
X102178847Y-111161218D01*
X102158330Y-111148921D01*
X102139117Y-111134671D01*
X102121393Y-111118607D01*
X102105329Y-111100883D01*
X102091079Y-111081670D01*
X102078782Y-111061153D01*
X102068554Y-111039529D01*
X102060496Y-111017007D01*
X102054684Y-110993803D01*
X102051174Y-110970142D01*
X102050000Y-110946250D01*
X102050000Y-110033750D01*
X102051174Y-110009858D01*
X102054684Y-109986197D01*
X102060496Y-109962993D01*
X102068554Y-109940471D01*
X102078782Y-109918847D01*
X102091079Y-109898330D01*
X102105329Y-109879117D01*
X102121393Y-109861393D01*
X102139117Y-109845329D01*
X102158330Y-109831079D01*
X102178847Y-109818782D01*
X102200471Y-109808554D01*
X102222993Y-109800496D01*
X102246197Y-109794684D01*
X102269858Y-109791174D01*
X102293750Y-109790000D01*
X102781250Y-109790000D01*
X102805142Y-109791174D01*
X102805142Y-109791174D01*
G37*
D11*
G04 #@! TD*
G04 #@! TO.P,R5,2*
G04 #@! TO.N,start*
X102537500Y-110490000D03*
D10*
G04 #@! TO.N,GND*
G04 #@! TO.C,R5*
G36*
X100930142Y-109791174D02*
X100953803Y-109794684D01*
X100977007Y-109800496D01*
X100999529Y-109808554D01*
X101021153Y-109818782D01*
X101041670Y-109831079D01*
X101060883Y-109845329D01*
X101078607Y-109861393D01*
X101094671Y-109879117D01*
X101108921Y-109898330D01*
X101121218Y-109918847D01*
X101131446Y-109940471D01*
X101139504Y-109962993D01*
X101145316Y-109986197D01*
X101148826Y-110009858D01*
X101150000Y-110033750D01*
X101150000Y-110946250D01*
X101148826Y-110970142D01*
X101145316Y-110993803D01*
X101139504Y-111017007D01*
X101131446Y-111039529D01*
X101121218Y-111061153D01*
X101108921Y-111081670D01*
X101094671Y-111100883D01*
X101078607Y-111118607D01*
X101060883Y-111134671D01*
X101041670Y-111148921D01*
X101021153Y-111161218D01*
X100999529Y-111171446D01*
X100977007Y-111179504D01*
X100953803Y-111185316D01*
X100930142Y-111188826D01*
X100906250Y-111190000D01*
X100418750Y-111190000D01*
X100394858Y-111188826D01*
X100371197Y-111185316D01*
X100347993Y-111179504D01*
X100325471Y-111171446D01*
X100303847Y-111161218D01*
X100283330Y-111148921D01*
X100264117Y-111134671D01*
X100246393Y-111118607D01*
X100230329Y-111100883D01*
X100216079Y-111081670D01*
X100203782Y-111061153D01*
X100193554Y-111039529D01*
X100185496Y-111017007D01*
X100179684Y-110993803D01*
X100176174Y-110970142D01*
X100175000Y-110946250D01*
X100175000Y-110033750D01*
X100176174Y-110009858D01*
X100179684Y-109986197D01*
X100185496Y-109962993D01*
X100193554Y-109940471D01*
X100203782Y-109918847D01*
X100216079Y-109898330D01*
X100230329Y-109879117D01*
X100246393Y-109861393D01*
X100264117Y-109845329D01*
X100283330Y-109831079D01*
X100303847Y-109818782D01*
X100325471Y-109808554D01*
X100347993Y-109800496D01*
X100371197Y-109794684D01*
X100394858Y-109791174D01*
X100418750Y-109790000D01*
X100906250Y-109790000D01*
X100930142Y-109791174D01*
X100930142Y-109791174D01*
G37*
D11*
G04 #@! TD*
G04 #@! TO.P,R5,1*
G04 #@! TO.N,GND*
X100662500Y-110490000D03*
D16*
G04 #@! TO.P,SW1,2*
G04 #@! TO.N,setup*
X73510000Y-104830000D03*
G04 #@! TO.P,SW1,1*
G04 #@! TO.N,+3V3*
X73510000Y-100330000D03*
G04 #@! TO.P,SW1,2*
G04 #@! TO.N,setup*
X80010000Y-104830000D03*
G04 #@! TO.P,SW1,1*
G04 #@! TO.N,+3V3*
X80010000Y-100330000D03*
G04 #@! TD*
G04 #@! TO.P,SW2,1*
G04 #@! TO.N,+3V3*
X101750000Y-100330000D03*
G04 #@! TO.P,SW2,2*
G04 #@! TO.N,start*
X101750000Y-104830000D03*
G04 #@! TO.P,SW2,1*
G04 #@! TO.N,+3V3*
X95250000Y-100330000D03*
G04 #@! TO.P,SW2,2*
G04 #@! TO.N,start*
X95250000Y-104830000D03*
G04 #@! TD*
D17*
G04 #@! TO.P,U1,1*
G04 #@! TO.N,Net-(U1-Pad1)*
X84140000Y-110490000D03*
G04 #@! TO.P,U1,2*
G04 #@! TO.N,onoff*
X84140000Y-111760000D03*
G04 #@! TO.P,U1,3*
G04 #@! TO.N,playpause*
X84140000Y-113030000D03*
G04 #@! TO.P,U1,4*
G04 #@! TO.N,GND*
X84140000Y-114300000D03*
G04 #@! TO.P,U1,5*
G04 #@! TO.N,setup*
X91440000Y-114300000D03*
G04 #@! TO.P,U1,6*
G04 #@! TO.N,start*
X91440000Y-113030000D03*
G04 #@! TO.P,U1,7*
G04 #@! TO.N,status*
X91440000Y-111760000D03*
G04 #@! TO.P,U1,8*
G04 #@! TO.N,+3V3*
X91440000Y-110490000D03*
G04 #@! TD*
D18*
G04 #@! TO.P,U2,1*
G04 #@! TO.N,onoff*
X83820000Y-106680000D03*
D19*
G04 #@! TO.P,U2,5*
G04 #@! TO.N,Net-(J1-Pad1)*
X91440000Y-99060000D03*
G04 #@! TO.P,U2,2*
G04 #@! TO.N,Net-(R1-Pad1)*
X86360000Y-106680000D03*
G04 #@! TO.P,U2,6*
G04 #@! TO.N,Net-(J1-Pad2)*
X88900000Y-99060000D03*
G04 #@! TO.P,U2,3*
G04 #@! TO.N,Net-(R2-Pad2)*
X88900000Y-106680000D03*
G04 #@! TO.P,U2,7*
G04 #@! TO.N,Net-(J1-Pad3)*
X86360000Y-99060000D03*
G04 #@! TO.P,U2,4*
G04 #@! TO.N,playpause*
X91440000Y-106680000D03*
G04 #@! TO.P,U2,8*
G04 #@! TO.N,Net-(J1-Pad4)*
X83820000Y-99060000D03*
G04 #@! TD*
D20*
G04 #@! TO.P,SW3,1*
G04 #@! TO.N,Net-(J2-Pad1)*
X69850000Y-114220000D03*
D21*
G04 #@! TO.P,SW3,2*
G04 #@! TO.N,+3V3*
X69850000Y-111720000D03*
G04 #@! TO.P,SW3,3*
G04 #@! TO.N,N/C*
X69850000Y-109220000D03*
G04 #@! TO.P,SW3,4*
X73150000Y-114220000D03*
G04 #@! TO.P,SW3,5*
X73150000Y-111720000D03*
G04 #@! TO.P,SW3,6*
X73150000Y-109220000D03*
G04 #@! TD*
D22*
G04 #@! TO.N,setup*
X89238600Y-114201200D03*
G04 #@! TD*
D23*
G04 #@! TO.N,Net-(D1-Pad2)*
X74597500Y-95250000D02*
X75642700Y-94204800D01*
X75642700Y-94204800D02*
X78299800Y-94204800D01*
X78299800Y-94204800D02*
X79345000Y-95250000D01*
G04 #@! TO.N,GND*
X77470000Y-95250000D02*
X78658900Y-96438900D01*
X78658900Y-96438900D02*
X94393600Y-96438900D01*
X94393600Y-96438900D02*
X95582500Y-95250000D01*
X79508500Y-111760000D02*
X74525100Y-106776600D01*
X74525100Y-106776600D02*
X73574200Y-106776600D01*
X73574200Y-106776600D02*
X71858000Y-105060400D01*
X71858000Y-105060400D02*
X71858000Y-94558900D01*
X71858000Y-94558900D02*
X72202600Y-94214300D01*
X72202600Y-94214300D02*
X73246100Y-94214300D01*
X73246100Y-94214300D02*
X73660000Y-94628200D01*
X73660000Y-94628200D02*
X73660000Y-95869100D01*
X73660000Y-95869100D02*
X74088700Y-96297800D01*
X74088700Y-96297800D02*
X76422200Y-96297800D01*
X76422200Y-96297800D02*
X77470000Y-95250000D01*
X79508500Y-111760000D02*
X80395300Y-111760000D01*
X79470000Y-111760000D02*
X79508500Y-111760000D01*
X99177800Y-110704700D02*
X95582500Y-114300000D01*
X100662500Y-110490000D02*
X99392500Y-110490000D01*
X99392500Y-110490000D02*
X99177800Y-110704700D01*
X99177800Y-110704700D02*
X97916900Y-109443800D01*
X97916900Y-109443800D02*
X96628700Y-109443800D01*
X96628700Y-109443800D02*
X95582500Y-110490000D01*
X84140000Y-114300000D02*
X85315300Y-114300000D01*
X95582500Y-114300000D02*
X94932200Y-114950300D01*
X94932200Y-114950300D02*
X85965600Y-114950300D01*
X85965600Y-114950300D02*
X85315300Y-114300000D01*
X84140000Y-114300000D02*
X82935300Y-114300000D01*
X82935300Y-114300000D02*
X80395300Y-111760000D01*
G04 #@! TO.N,Net-(D2-Pad2)*
X100330500Y-95250000D02*
X97457500Y-95250000D01*
G04 #@! TO.N,Net-(D3-Pad1)*
X97457500Y-114300000D02*
X100662500Y-114300000D01*
G04 #@! TO.N,status*
X91440000Y-111760000D02*
X92615300Y-111760000D01*
X92615300Y-111760000D02*
X95417400Y-108957900D01*
X95417400Y-108957900D02*
X100671600Y-108957900D01*
X100671600Y-108957900D02*
X101600000Y-109886300D01*
X101600000Y-109886300D02*
X101600000Y-113362500D01*
X101600000Y-113362500D02*
X102537500Y-114300000D01*
G04 #@! TO.N,+3V3*
X95250000Y-100330000D02*
X80010000Y-100330000D01*
X92615300Y-110490000D02*
X92615300Y-109464700D01*
X92615300Y-109464700D02*
X101750000Y-100330000D01*
X91440000Y-110490000D02*
X92615300Y-110490000D01*
G04 #@! TO.N,Net-(R1-Pad1)*
X86360000Y-106680000D02*
X85234700Y-106680000D01*
X85234700Y-106680000D02*
X85234700Y-105976600D01*
X85234700Y-105976600D02*
X84812800Y-105554700D01*
X84812800Y-105554700D02*
X82678600Y-105554700D01*
X82678600Y-105554700D02*
X72722500Y-95598600D01*
X72722500Y-95598600D02*
X72722500Y-95250000D01*
G04 #@! TO.N,Net-(R2-Pad2)*
X88900000Y-106680000D02*
X93509900Y-102070100D01*
X93509900Y-102070100D02*
X95385400Y-102070100D01*
X95385400Y-102070100D02*
X102205500Y-95250000D01*
G04 #@! TO.N,setup*
X91440000Y-114300000D02*
X89337400Y-114300000D01*
X89337400Y-114300000D02*
X89238600Y-114201200D01*
X97457500Y-110490000D02*
X93647500Y-114300000D01*
X93647500Y-114300000D02*
X91440000Y-114300000D01*
X80010000Y-104830000D02*
X73510000Y-104830000D01*
G04 #@! TO.N,start*
X101750000Y-104830000D02*
X102537500Y-105617500D01*
X102537500Y-105617500D02*
X102537500Y-110490000D01*
X91440000Y-113030000D02*
X90264700Y-113030000D01*
X90264700Y-113030000D02*
X90264700Y-109815300D01*
X90264700Y-109815300D02*
X95250000Y-104830000D01*
G04 #@! TO.N,onoff*
X84140000Y-111760000D02*
X82964700Y-111760000D01*
X83820000Y-106680000D02*
X83820000Y-107805300D01*
X83820000Y-107805300D02*
X82964700Y-108660600D01*
X82964700Y-108660600D02*
X82964700Y-111760000D01*
G04 #@! TO.N,playpause*
X90314700Y-106680000D02*
X90314700Y-108030600D01*
X90314700Y-108030600D02*
X85315300Y-113030000D01*
X84140000Y-113030000D02*
X85315300Y-113030000D01*
X91440000Y-106680000D02*
X90314700Y-106680000D01*
G04 #@! TO.N,Net-(J2-Pad1)*
X69850000Y-114220000D02*
X70875300Y-114220000D01*
X70875300Y-114220000D02*
X71900600Y-113194700D01*
X71900600Y-113194700D02*
X76035300Y-113194700D01*
X76035300Y-113194700D02*
X77470000Y-111760000D01*
G04 #@! TD*
M02*
