G04 #@! TF.GenerationSoftware,KiCad,Pcbnew,(5.0.1-3-g963ef8bb5)*
G04 #@! TF.CreationDate,2019-02-13T22:27:56+01:00*
G04 #@! TF.ProjectId,main,6D61696E2E6B696361645F7063620000,rev?*
G04 #@! TF.SameCoordinates,Original*
G04 #@! TF.FileFunction,Soldermask,Top*
G04 #@! TF.FilePolarity,Negative*
%FSLAX46Y46*%
G04 Gerber Fmt 4.6, Leading zero omitted, Abs format (unit mm)*
G04 Created by KiCad (PCBNEW (5.0.1-3-g963ef8bb5)) date 2019 February 13, Wednesday 22:27:56*
%MOMM*%
%LPD*%
G01*
G04 APERTURE LIST*
%ADD10C,0.100000*%
G04 APERTURE END LIST*
D10*
G36*
X102909466Y-113553565D02*
X102948137Y-113565296D01*
X102983779Y-113584348D01*
X103015017Y-113609983D01*
X103040652Y-113641221D01*
X103059704Y-113676863D01*
X103071435Y-113715534D01*
X103076000Y-113761888D01*
X103076000Y-114838112D01*
X103071435Y-114884466D01*
X103059704Y-114923137D01*
X103040652Y-114958779D01*
X103015017Y-114990017D01*
X102983779Y-115015652D01*
X102948137Y-115034704D01*
X102909466Y-115046435D01*
X102863112Y-115051000D01*
X102211888Y-115051000D01*
X102165534Y-115046435D01*
X102126863Y-115034704D01*
X102091221Y-115015652D01*
X102059983Y-114990017D01*
X102034348Y-114958779D01*
X102015296Y-114923137D01*
X102003565Y-114884466D01*
X101999000Y-114838112D01*
X101999000Y-113761888D01*
X102003565Y-113715534D01*
X102015296Y-113676863D01*
X102034348Y-113641221D01*
X102059983Y-113609983D01*
X102091221Y-113584348D01*
X102126863Y-113565296D01*
X102165534Y-113553565D01*
X102211888Y-113549000D01*
X102863112Y-113549000D01*
X102909466Y-113553565D01*
X102909466Y-113553565D01*
G37*
G36*
X101034466Y-113553565D02*
X101073137Y-113565296D01*
X101108779Y-113584348D01*
X101140017Y-113609983D01*
X101165652Y-113641221D01*
X101184704Y-113676863D01*
X101196435Y-113715534D01*
X101201000Y-113761888D01*
X101201000Y-114838112D01*
X101196435Y-114884466D01*
X101184704Y-114923137D01*
X101165652Y-114958779D01*
X101140017Y-114990017D01*
X101108779Y-115015652D01*
X101073137Y-115034704D01*
X101034466Y-115046435D01*
X100988112Y-115051000D01*
X100336888Y-115051000D01*
X100290534Y-115046435D01*
X100251863Y-115034704D01*
X100216221Y-115015652D01*
X100184983Y-114990017D01*
X100159348Y-114958779D01*
X100140296Y-114923137D01*
X100128565Y-114884466D01*
X100124000Y-114838112D01*
X100124000Y-113761888D01*
X100128565Y-113715534D01*
X100140296Y-113676863D01*
X100159348Y-113641221D01*
X100184983Y-113609983D01*
X100216221Y-113584348D01*
X100251863Y-113565296D01*
X100290534Y-113553565D01*
X100336888Y-113549000D01*
X100988112Y-113549000D01*
X101034466Y-113553565D01*
X101034466Y-113553565D01*
G37*
G36*
X97829466Y-113553565D02*
X97868137Y-113565296D01*
X97903779Y-113584348D01*
X97935017Y-113609983D01*
X97960652Y-113641221D01*
X97979704Y-113676863D01*
X97991435Y-113715534D01*
X97996000Y-113761888D01*
X97996000Y-114838112D01*
X97991435Y-114884466D01*
X97979704Y-114923137D01*
X97960652Y-114958779D01*
X97935017Y-114990017D01*
X97903779Y-115015652D01*
X97868137Y-115034704D01*
X97829466Y-115046435D01*
X97783112Y-115051000D01*
X97131888Y-115051000D01*
X97085534Y-115046435D01*
X97046863Y-115034704D01*
X97011221Y-115015652D01*
X96979983Y-114990017D01*
X96954348Y-114958779D01*
X96935296Y-114923137D01*
X96923565Y-114884466D01*
X96919000Y-114838112D01*
X96919000Y-113761888D01*
X96923565Y-113715534D01*
X96935296Y-113676863D01*
X96954348Y-113641221D01*
X96979983Y-113609983D01*
X97011221Y-113584348D01*
X97046863Y-113565296D01*
X97085534Y-113553565D01*
X97131888Y-113549000D01*
X97783112Y-113549000D01*
X97829466Y-113553565D01*
X97829466Y-113553565D01*
G37*
G36*
X95954466Y-113553565D02*
X95993137Y-113565296D01*
X96028779Y-113584348D01*
X96060017Y-113609983D01*
X96085652Y-113641221D01*
X96104704Y-113676863D01*
X96116435Y-113715534D01*
X96121000Y-113761888D01*
X96121000Y-114838112D01*
X96116435Y-114884466D01*
X96104704Y-114923137D01*
X96085652Y-114958779D01*
X96060017Y-114990017D01*
X96028779Y-115015652D01*
X95993137Y-115034704D01*
X95954466Y-115046435D01*
X95908112Y-115051000D01*
X95256888Y-115051000D01*
X95210534Y-115046435D01*
X95171863Y-115034704D01*
X95136221Y-115015652D01*
X95104983Y-114990017D01*
X95079348Y-114958779D01*
X95060296Y-114923137D01*
X95048565Y-114884466D01*
X95044000Y-114838112D01*
X95044000Y-113761888D01*
X95048565Y-113715534D01*
X95060296Y-113676863D01*
X95079348Y-113641221D01*
X95104983Y-113609983D01*
X95136221Y-113584348D01*
X95171863Y-113565296D01*
X95210534Y-113553565D01*
X95256888Y-113549000D01*
X95908112Y-113549000D01*
X95954466Y-113553565D01*
X95954466Y-113553565D01*
G37*
G36*
X73282004Y-113480544D02*
X73369059Y-113497860D01*
X73505732Y-113554472D01*
X73565454Y-113594377D01*
X73628738Y-113636662D01*
X73733338Y-113741262D01*
X73733340Y-113741265D01*
X73815528Y-113864268D01*
X73872140Y-114000941D01*
X73901000Y-114146033D01*
X73901000Y-114293967D01*
X73872140Y-114439059D01*
X73815528Y-114575732D01*
X73815527Y-114575733D01*
X73733338Y-114698738D01*
X73628738Y-114803338D01*
X73628735Y-114803340D01*
X73505732Y-114885528D01*
X73369059Y-114942140D01*
X73285407Y-114958779D01*
X73223969Y-114971000D01*
X73076031Y-114971000D01*
X73014593Y-114958779D01*
X72930941Y-114942140D01*
X72794268Y-114885528D01*
X72671265Y-114803340D01*
X72671262Y-114803338D01*
X72566662Y-114698738D01*
X72484473Y-114575733D01*
X72484472Y-114575732D01*
X72427860Y-114439059D01*
X72399000Y-114293967D01*
X72399000Y-114146033D01*
X72427860Y-114000941D01*
X72484472Y-113864268D01*
X72566660Y-113741265D01*
X72566662Y-113741262D01*
X72671262Y-113636662D01*
X72734546Y-113594377D01*
X72794268Y-113554472D01*
X72930941Y-113497860D01*
X73017996Y-113480544D01*
X73076031Y-113469000D01*
X73223969Y-113469000D01*
X73282004Y-113480544D01*
X73282004Y-113480544D01*
G37*
G36*
X70601000Y-114971000D02*
X69099000Y-114971000D01*
X69099000Y-113469000D01*
X70601000Y-113469000D01*
X70601000Y-114971000D01*
X70601000Y-114971000D01*
G37*
G36*
X92341000Y-114676000D02*
X90539000Y-114676000D01*
X90539000Y-113924000D01*
X92341000Y-113924000D01*
X92341000Y-114676000D01*
X92341000Y-114676000D01*
G37*
G36*
X85041000Y-114676000D02*
X83239000Y-114676000D01*
X83239000Y-113924000D01*
X85041000Y-113924000D01*
X85041000Y-114676000D01*
X85041000Y-114676000D01*
G37*
G36*
X92341000Y-113406000D02*
X90539000Y-113406000D01*
X90539000Y-112654000D01*
X92341000Y-112654000D01*
X92341000Y-113406000D01*
X92341000Y-113406000D01*
G37*
G36*
X85041000Y-113406000D02*
X83239000Y-113406000D01*
X83239000Y-112654000D01*
X85041000Y-112654000D01*
X85041000Y-113406000D01*
X85041000Y-113406000D01*
G37*
G36*
X79597617Y-110843420D02*
X79679426Y-110868237D01*
X79720332Y-110880645D01*
X79742544Y-110892518D01*
X79833425Y-110941095D01*
X79833427Y-110941096D01*
X79833426Y-110941096D01*
X79906965Y-111001447D01*
X79932553Y-111022447D01*
X80013905Y-111121574D01*
X80013906Y-111121576D01*
X80074355Y-111234667D01*
X80076356Y-111241265D01*
X80111580Y-111357382D01*
X80121000Y-111453027D01*
X80121000Y-112066973D01*
X80111580Y-112162618D01*
X80100624Y-112198735D01*
X80074355Y-112285333D01*
X80064731Y-112303338D01*
X80013905Y-112398426D01*
X79932553Y-112497553D01*
X79833426Y-112578905D01*
X79833424Y-112578906D01*
X79720333Y-112639355D01*
X79679427Y-112651763D01*
X79597618Y-112676580D01*
X79470000Y-112689149D01*
X79342383Y-112676580D01*
X79260574Y-112651763D01*
X79219668Y-112639355D01*
X79106577Y-112578906D01*
X79106575Y-112578905D01*
X79007448Y-112497553D01*
X78926095Y-112398426D01*
X78875269Y-112303338D01*
X78865645Y-112285333D01*
X78839376Y-112198735D01*
X78828420Y-112162618D01*
X78819000Y-112066973D01*
X78819000Y-111453028D01*
X78828420Y-111357383D01*
X78863645Y-111241262D01*
X78865645Y-111234668D01*
X78918032Y-111136660D01*
X78926095Y-111121575D01*
X79007447Y-111022447D01*
X79106574Y-110941095D01*
X79141400Y-110922480D01*
X79219667Y-110880645D01*
X79260573Y-110868237D01*
X79342382Y-110843420D01*
X79470000Y-110830851D01*
X79597617Y-110843420D01*
X79597617Y-110843420D01*
G37*
G36*
X77961242Y-110838404D02*
X77998339Y-110849657D01*
X78032520Y-110867927D01*
X78062482Y-110892518D01*
X78087073Y-110922480D01*
X78105343Y-110956661D01*
X78116596Y-110993758D01*
X78121000Y-111038473D01*
X78121000Y-112481527D01*
X78116596Y-112526242D01*
X78105343Y-112563339D01*
X78087073Y-112597520D01*
X78062482Y-112627482D01*
X78032520Y-112652073D01*
X77998339Y-112670343D01*
X77961242Y-112681596D01*
X77916527Y-112686000D01*
X77023473Y-112686000D01*
X76978758Y-112681596D01*
X76941661Y-112670343D01*
X76907480Y-112652073D01*
X76877518Y-112627482D01*
X76852927Y-112597520D01*
X76834657Y-112563339D01*
X76823404Y-112526242D01*
X76819000Y-112481527D01*
X76819000Y-111038473D01*
X76823404Y-110993758D01*
X76834657Y-110956661D01*
X76852927Y-110922480D01*
X76877518Y-110892518D01*
X76907480Y-110867927D01*
X76941661Y-110849657D01*
X76978758Y-110838404D01*
X77023473Y-110834000D01*
X77916527Y-110834000D01*
X77961242Y-110838404D01*
X77961242Y-110838404D01*
G37*
G36*
X69982004Y-110980544D02*
X70069059Y-110997860D01*
X70205732Y-111054472D01*
X70306157Y-111121574D01*
X70328738Y-111136662D01*
X70433338Y-111241262D01*
X70433340Y-111241265D01*
X70515528Y-111364268D01*
X70572140Y-111500941D01*
X70601000Y-111646033D01*
X70601000Y-111793967D01*
X70572140Y-111939059D01*
X70515528Y-112075732D01*
X70515527Y-112075733D01*
X70433338Y-112198738D01*
X70328738Y-112303338D01*
X70328735Y-112303340D01*
X70205732Y-112385528D01*
X70069059Y-112442140D01*
X69982004Y-112459456D01*
X69923969Y-112471000D01*
X69776031Y-112471000D01*
X69717996Y-112459456D01*
X69630941Y-112442140D01*
X69494268Y-112385528D01*
X69371265Y-112303340D01*
X69371262Y-112303338D01*
X69266662Y-112198738D01*
X69184473Y-112075733D01*
X69184472Y-112075732D01*
X69127860Y-111939059D01*
X69099000Y-111793967D01*
X69099000Y-111646033D01*
X69127860Y-111500941D01*
X69184472Y-111364268D01*
X69266660Y-111241265D01*
X69266662Y-111241262D01*
X69371262Y-111136662D01*
X69393843Y-111121574D01*
X69494268Y-111054472D01*
X69630941Y-110997860D01*
X69717996Y-110980544D01*
X69776031Y-110969000D01*
X69923969Y-110969000D01*
X69982004Y-110980544D01*
X69982004Y-110980544D01*
G37*
G36*
X73282004Y-110980544D02*
X73369059Y-110997860D01*
X73505732Y-111054472D01*
X73606157Y-111121574D01*
X73628738Y-111136662D01*
X73733338Y-111241262D01*
X73733340Y-111241265D01*
X73815528Y-111364268D01*
X73872140Y-111500941D01*
X73901000Y-111646033D01*
X73901000Y-111793967D01*
X73872140Y-111939059D01*
X73815528Y-112075732D01*
X73815527Y-112075733D01*
X73733338Y-112198738D01*
X73628738Y-112303338D01*
X73628735Y-112303340D01*
X73505732Y-112385528D01*
X73369059Y-112442140D01*
X73282004Y-112459456D01*
X73223969Y-112471000D01*
X73076031Y-112471000D01*
X73017996Y-112459456D01*
X72930941Y-112442140D01*
X72794268Y-112385528D01*
X72671265Y-112303340D01*
X72671262Y-112303338D01*
X72566662Y-112198738D01*
X72484473Y-112075733D01*
X72484472Y-112075732D01*
X72427860Y-111939059D01*
X72399000Y-111793967D01*
X72399000Y-111646033D01*
X72427860Y-111500941D01*
X72484472Y-111364268D01*
X72566660Y-111241265D01*
X72566662Y-111241262D01*
X72671262Y-111136662D01*
X72693843Y-111121574D01*
X72794268Y-111054472D01*
X72930941Y-110997860D01*
X73017996Y-110980544D01*
X73076031Y-110969000D01*
X73223969Y-110969000D01*
X73282004Y-110980544D01*
X73282004Y-110980544D01*
G37*
G36*
X92341000Y-112136000D02*
X90539000Y-112136000D01*
X90539000Y-111384000D01*
X92341000Y-111384000D01*
X92341000Y-112136000D01*
X92341000Y-112136000D01*
G37*
G36*
X85041000Y-112136000D02*
X83239000Y-112136000D01*
X83239000Y-111384000D01*
X85041000Y-111384000D01*
X85041000Y-112136000D01*
X85041000Y-112136000D01*
G37*
G36*
X95954466Y-109743565D02*
X95993137Y-109755296D01*
X96028779Y-109774348D01*
X96060017Y-109799983D01*
X96085652Y-109831221D01*
X96104704Y-109866863D01*
X96116435Y-109905534D01*
X96121000Y-109951888D01*
X96121000Y-111028112D01*
X96116435Y-111074466D01*
X96104704Y-111113137D01*
X96085652Y-111148779D01*
X96060017Y-111180017D01*
X96028779Y-111205652D01*
X95993137Y-111224704D01*
X95954466Y-111236435D01*
X95908112Y-111241000D01*
X95256888Y-111241000D01*
X95210534Y-111236435D01*
X95171863Y-111224704D01*
X95136221Y-111205652D01*
X95104983Y-111180017D01*
X95079348Y-111148779D01*
X95060296Y-111113137D01*
X95048565Y-111074466D01*
X95044000Y-111028112D01*
X95044000Y-109951888D01*
X95048565Y-109905534D01*
X95060296Y-109866863D01*
X95079348Y-109831221D01*
X95104983Y-109799983D01*
X95136221Y-109774348D01*
X95171863Y-109755296D01*
X95210534Y-109743565D01*
X95256888Y-109739000D01*
X95908112Y-109739000D01*
X95954466Y-109743565D01*
X95954466Y-109743565D01*
G37*
G36*
X97829466Y-109743565D02*
X97868137Y-109755296D01*
X97903779Y-109774348D01*
X97935017Y-109799983D01*
X97960652Y-109831221D01*
X97979704Y-109866863D01*
X97991435Y-109905534D01*
X97996000Y-109951888D01*
X97996000Y-111028112D01*
X97991435Y-111074466D01*
X97979704Y-111113137D01*
X97960652Y-111148779D01*
X97935017Y-111180017D01*
X97903779Y-111205652D01*
X97868137Y-111224704D01*
X97829466Y-111236435D01*
X97783112Y-111241000D01*
X97131888Y-111241000D01*
X97085534Y-111236435D01*
X97046863Y-111224704D01*
X97011221Y-111205652D01*
X96979983Y-111180017D01*
X96954348Y-111148779D01*
X96935296Y-111113137D01*
X96923565Y-111074466D01*
X96919000Y-111028112D01*
X96919000Y-109951888D01*
X96923565Y-109905534D01*
X96935296Y-109866863D01*
X96954348Y-109831221D01*
X96979983Y-109799983D01*
X97011221Y-109774348D01*
X97046863Y-109755296D01*
X97085534Y-109743565D01*
X97131888Y-109739000D01*
X97783112Y-109739000D01*
X97829466Y-109743565D01*
X97829466Y-109743565D01*
G37*
G36*
X101034466Y-109743565D02*
X101073137Y-109755296D01*
X101108779Y-109774348D01*
X101140017Y-109799983D01*
X101165652Y-109831221D01*
X101184704Y-109866863D01*
X101196435Y-109905534D01*
X101201000Y-109951888D01*
X101201000Y-111028112D01*
X101196435Y-111074466D01*
X101184704Y-111113137D01*
X101165652Y-111148779D01*
X101140017Y-111180017D01*
X101108779Y-111205652D01*
X101073137Y-111224704D01*
X101034466Y-111236435D01*
X100988112Y-111241000D01*
X100336888Y-111241000D01*
X100290534Y-111236435D01*
X100251863Y-111224704D01*
X100216221Y-111205652D01*
X100184983Y-111180017D01*
X100159348Y-111148779D01*
X100140296Y-111113137D01*
X100128565Y-111074466D01*
X100124000Y-111028112D01*
X100124000Y-109951888D01*
X100128565Y-109905534D01*
X100140296Y-109866863D01*
X100159348Y-109831221D01*
X100184983Y-109799983D01*
X100216221Y-109774348D01*
X100251863Y-109755296D01*
X100290534Y-109743565D01*
X100336888Y-109739000D01*
X100988112Y-109739000D01*
X101034466Y-109743565D01*
X101034466Y-109743565D01*
G37*
G36*
X102909466Y-109743565D02*
X102948137Y-109755296D01*
X102983779Y-109774348D01*
X103015017Y-109799983D01*
X103040652Y-109831221D01*
X103059704Y-109866863D01*
X103071435Y-109905534D01*
X103076000Y-109951888D01*
X103076000Y-111028112D01*
X103071435Y-111074466D01*
X103059704Y-111113137D01*
X103040652Y-111148779D01*
X103015017Y-111180017D01*
X102983779Y-111205652D01*
X102948137Y-111224704D01*
X102909466Y-111236435D01*
X102863112Y-111241000D01*
X102211888Y-111241000D01*
X102165534Y-111236435D01*
X102126863Y-111224704D01*
X102091221Y-111205652D01*
X102059983Y-111180017D01*
X102034348Y-111148779D01*
X102015296Y-111113137D01*
X102003565Y-111074466D01*
X101999000Y-111028112D01*
X101999000Y-109951888D01*
X102003565Y-109905534D01*
X102015296Y-109866863D01*
X102034348Y-109831221D01*
X102059983Y-109799983D01*
X102091221Y-109774348D01*
X102126863Y-109755296D01*
X102165534Y-109743565D01*
X102211888Y-109739000D01*
X102863112Y-109739000D01*
X102909466Y-109743565D01*
X102909466Y-109743565D01*
G37*
G36*
X85041000Y-110866000D02*
X83239000Y-110866000D01*
X83239000Y-110114000D01*
X85041000Y-110114000D01*
X85041000Y-110866000D01*
X85041000Y-110866000D01*
G37*
G36*
X92341000Y-110866000D02*
X90539000Y-110866000D01*
X90539000Y-110114000D01*
X92341000Y-110114000D01*
X92341000Y-110866000D01*
X92341000Y-110866000D01*
G37*
G36*
X73282004Y-108480544D02*
X73369059Y-108497860D01*
X73505732Y-108554472D01*
X73505733Y-108554473D01*
X73628738Y-108636662D01*
X73733338Y-108741262D01*
X73733340Y-108741265D01*
X73815528Y-108864268D01*
X73872140Y-109000941D01*
X73901000Y-109146033D01*
X73901000Y-109293967D01*
X73872140Y-109439059D01*
X73815528Y-109575732D01*
X73815527Y-109575733D01*
X73733338Y-109698738D01*
X73628738Y-109803338D01*
X73628735Y-109803340D01*
X73505732Y-109885528D01*
X73369059Y-109942140D01*
X73300776Y-109955722D01*
X73223969Y-109971000D01*
X73076031Y-109971000D01*
X72999224Y-109955722D01*
X72930941Y-109942140D01*
X72794268Y-109885528D01*
X72671265Y-109803340D01*
X72671262Y-109803338D01*
X72566662Y-109698738D01*
X72484473Y-109575733D01*
X72484472Y-109575732D01*
X72427860Y-109439059D01*
X72399000Y-109293967D01*
X72399000Y-109146033D01*
X72427860Y-109000941D01*
X72484472Y-108864268D01*
X72566660Y-108741265D01*
X72566662Y-108741262D01*
X72671262Y-108636662D01*
X72794267Y-108554473D01*
X72794268Y-108554472D01*
X72930941Y-108497860D01*
X73017996Y-108480544D01*
X73076031Y-108469000D01*
X73223969Y-108469000D01*
X73282004Y-108480544D01*
X73282004Y-108480544D01*
G37*
G36*
X69982004Y-108480544D02*
X70069059Y-108497860D01*
X70205732Y-108554472D01*
X70205733Y-108554473D01*
X70328738Y-108636662D01*
X70433338Y-108741262D01*
X70433340Y-108741265D01*
X70515528Y-108864268D01*
X70572140Y-109000941D01*
X70601000Y-109146033D01*
X70601000Y-109293967D01*
X70572140Y-109439059D01*
X70515528Y-109575732D01*
X70515527Y-109575733D01*
X70433338Y-109698738D01*
X70328738Y-109803338D01*
X70328735Y-109803340D01*
X70205732Y-109885528D01*
X70069059Y-109942140D01*
X70000776Y-109955722D01*
X69923969Y-109971000D01*
X69776031Y-109971000D01*
X69699224Y-109955722D01*
X69630941Y-109942140D01*
X69494268Y-109885528D01*
X69371265Y-109803340D01*
X69371262Y-109803338D01*
X69266662Y-109698738D01*
X69184473Y-109575733D01*
X69184472Y-109575732D01*
X69127860Y-109439059D01*
X69099000Y-109293967D01*
X69099000Y-109146033D01*
X69127860Y-109000941D01*
X69184472Y-108864268D01*
X69266660Y-108741265D01*
X69266662Y-108741262D01*
X69371262Y-108636662D01*
X69494267Y-108554473D01*
X69494268Y-108554472D01*
X69630941Y-108497860D01*
X69717996Y-108480544D01*
X69776031Y-108469000D01*
X69923969Y-108469000D01*
X69982004Y-108480544D01*
X69982004Y-108480544D01*
G37*
G36*
X84671000Y-107531000D02*
X82969000Y-107531000D01*
X82969000Y-105829000D01*
X84671000Y-105829000D01*
X84671000Y-107531000D01*
X84671000Y-107531000D01*
G37*
G36*
X91606821Y-105841313D02*
X91606824Y-105841314D01*
X91606825Y-105841314D01*
X91767239Y-105889975D01*
X91767241Y-105889976D01*
X91767244Y-105889977D01*
X91915078Y-105968995D01*
X92044659Y-106075341D01*
X92151005Y-106204922D01*
X92230023Y-106352756D01*
X92278687Y-106513179D01*
X92295117Y-106680000D01*
X92278687Y-106846821D01*
X92230023Y-107007244D01*
X92151005Y-107155078D01*
X92044659Y-107284659D01*
X91915078Y-107391005D01*
X91767244Y-107470023D01*
X91767241Y-107470024D01*
X91767239Y-107470025D01*
X91606825Y-107518686D01*
X91606824Y-107518686D01*
X91606821Y-107518687D01*
X91481804Y-107531000D01*
X91398196Y-107531000D01*
X91273179Y-107518687D01*
X91273176Y-107518686D01*
X91273175Y-107518686D01*
X91112761Y-107470025D01*
X91112759Y-107470024D01*
X91112756Y-107470023D01*
X90964922Y-107391005D01*
X90835341Y-107284659D01*
X90728995Y-107155078D01*
X90649977Y-107007244D01*
X90601313Y-106846821D01*
X90584883Y-106680000D01*
X90601313Y-106513179D01*
X90649977Y-106352756D01*
X90728995Y-106204922D01*
X90835341Y-106075341D01*
X90964922Y-105968995D01*
X91112756Y-105889977D01*
X91112759Y-105889976D01*
X91112761Y-105889975D01*
X91273175Y-105841314D01*
X91273176Y-105841314D01*
X91273179Y-105841313D01*
X91398196Y-105829000D01*
X91481804Y-105829000D01*
X91606821Y-105841313D01*
X91606821Y-105841313D01*
G37*
G36*
X89066821Y-105841313D02*
X89066824Y-105841314D01*
X89066825Y-105841314D01*
X89227239Y-105889975D01*
X89227241Y-105889976D01*
X89227244Y-105889977D01*
X89375078Y-105968995D01*
X89504659Y-106075341D01*
X89611005Y-106204922D01*
X89690023Y-106352756D01*
X89738687Y-106513179D01*
X89755117Y-106680000D01*
X89738687Y-106846821D01*
X89690023Y-107007244D01*
X89611005Y-107155078D01*
X89504659Y-107284659D01*
X89375078Y-107391005D01*
X89227244Y-107470023D01*
X89227241Y-107470024D01*
X89227239Y-107470025D01*
X89066825Y-107518686D01*
X89066824Y-107518686D01*
X89066821Y-107518687D01*
X88941804Y-107531000D01*
X88858196Y-107531000D01*
X88733179Y-107518687D01*
X88733176Y-107518686D01*
X88733175Y-107518686D01*
X88572761Y-107470025D01*
X88572759Y-107470024D01*
X88572756Y-107470023D01*
X88424922Y-107391005D01*
X88295341Y-107284659D01*
X88188995Y-107155078D01*
X88109977Y-107007244D01*
X88061313Y-106846821D01*
X88044883Y-106680000D01*
X88061313Y-106513179D01*
X88109977Y-106352756D01*
X88188995Y-106204922D01*
X88295341Y-106075341D01*
X88424922Y-105968995D01*
X88572756Y-105889977D01*
X88572759Y-105889976D01*
X88572761Y-105889975D01*
X88733175Y-105841314D01*
X88733176Y-105841314D01*
X88733179Y-105841313D01*
X88858196Y-105829000D01*
X88941804Y-105829000D01*
X89066821Y-105841313D01*
X89066821Y-105841313D01*
G37*
G36*
X86526821Y-105841313D02*
X86526824Y-105841314D01*
X86526825Y-105841314D01*
X86687239Y-105889975D01*
X86687241Y-105889976D01*
X86687244Y-105889977D01*
X86835078Y-105968995D01*
X86964659Y-106075341D01*
X87071005Y-106204922D01*
X87150023Y-106352756D01*
X87198687Y-106513179D01*
X87215117Y-106680000D01*
X87198687Y-106846821D01*
X87150023Y-107007244D01*
X87071005Y-107155078D01*
X86964659Y-107284659D01*
X86835078Y-107391005D01*
X86687244Y-107470023D01*
X86687241Y-107470024D01*
X86687239Y-107470025D01*
X86526825Y-107518686D01*
X86526824Y-107518686D01*
X86526821Y-107518687D01*
X86401804Y-107531000D01*
X86318196Y-107531000D01*
X86193179Y-107518687D01*
X86193176Y-107518686D01*
X86193175Y-107518686D01*
X86032761Y-107470025D01*
X86032759Y-107470024D01*
X86032756Y-107470023D01*
X85884922Y-107391005D01*
X85755341Y-107284659D01*
X85648995Y-107155078D01*
X85569977Y-107007244D01*
X85521313Y-106846821D01*
X85504883Y-106680000D01*
X85521313Y-106513179D01*
X85569977Y-106352756D01*
X85648995Y-106204922D01*
X85755341Y-106075341D01*
X85884922Y-105968995D01*
X86032756Y-105889977D01*
X86032759Y-105889976D01*
X86032761Y-105889975D01*
X86193175Y-105841314D01*
X86193176Y-105841314D01*
X86193179Y-105841313D01*
X86318196Y-105829000D01*
X86401804Y-105829000D01*
X86526821Y-105841313D01*
X86526821Y-105841313D01*
G37*
G36*
X73816565Y-103819389D02*
X74007834Y-103898615D01*
X74179976Y-104013637D01*
X74326363Y-104160024D01*
X74441385Y-104332166D01*
X74520611Y-104523435D01*
X74561000Y-104726484D01*
X74561000Y-104933516D01*
X74520611Y-105136565D01*
X74441385Y-105327834D01*
X74326363Y-105499976D01*
X74179976Y-105646363D01*
X74007834Y-105761385D01*
X73816565Y-105840611D01*
X73613516Y-105881000D01*
X73406484Y-105881000D01*
X73203435Y-105840611D01*
X73012166Y-105761385D01*
X72840024Y-105646363D01*
X72693637Y-105499976D01*
X72578615Y-105327834D01*
X72499389Y-105136565D01*
X72459000Y-104933516D01*
X72459000Y-104726484D01*
X72499389Y-104523435D01*
X72578615Y-104332166D01*
X72693637Y-104160024D01*
X72840024Y-104013637D01*
X73012166Y-103898615D01*
X73203435Y-103819389D01*
X73406484Y-103779000D01*
X73613516Y-103779000D01*
X73816565Y-103819389D01*
X73816565Y-103819389D01*
G37*
G36*
X102056565Y-103819389D02*
X102247834Y-103898615D01*
X102419976Y-104013637D01*
X102566363Y-104160024D01*
X102681385Y-104332166D01*
X102760611Y-104523435D01*
X102801000Y-104726484D01*
X102801000Y-104933516D01*
X102760611Y-105136565D01*
X102681385Y-105327834D01*
X102566363Y-105499976D01*
X102419976Y-105646363D01*
X102247834Y-105761385D01*
X102056565Y-105840611D01*
X101853516Y-105881000D01*
X101646484Y-105881000D01*
X101443435Y-105840611D01*
X101252166Y-105761385D01*
X101080024Y-105646363D01*
X100933637Y-105499976D01*
X100818615Y-105327834D01*
X100739389Y-105136565D01*
X100699000Y-104933516D01*
X100699000Y-104726484D01*
X100739389Y-104523435D01*
X100818615Y-104332166D01*
X100933637Y-104160024D01*
X101080024Y-104013637D01*
X101252166Y-103898615D01*
X101443435Y-103819389D01*
X101646484Y-103779000D01*
X101853516Y-103779000D01*
X102056565Y-103819389D01*
X102056565Y-103819389D01*
G37*
G36*
X95556565Y-103819389D02*
X95747834Y-103898615D01*
X95919976Y-104013637D01*
X96066363Y-104160024D01*
X96181385Y-104332166D01*
X96260611Y-104523435D01*
X96301000Y-104726484D01*
X96301000Y-104933516D01*
X96260611Y-105136565D01*
X96181385Y-105327834D01*
X96066363Y-105499976D01*
X95919976Y-105646363D01*
X95747834Y-105761385D01*
X95556565Y-105840611D01*
X95353516Y-105881000D01*
X95146484Y-105881000D01*
X94943435Y-105840611D01*
X94752166Y-105761385D01*
X94580024Y-105646363D01*
X94433637Y-105499976D01*
X94318615Y-105327834D01*
X94239389Y-105136565D01*
X94199000Y-104933516D01*
X94199000Y-104726484D01*
X94239389Y-104523435D01*
X94318615Y-104332166D01*
X94433637Y-104160024D01*
X94580024Y-104013637D01*
X94752166Y-103898615D01*
X94943435Y-103819389D01*
X95146484Y-103779000D01*
X95353516Y-103779000D01*
X95556565Y-103819389D01*
X95556565Y-103819389D01*
G37*
G36*
X80316565Y-103819389D02*
X80507834Y-103898615D01*
X80679976Y-104013637D01*
X80826363Y-104160024D01*
X80941385Y-104332166D01*
X81020611Y-104523435D01*
X81061000Y-104726484D01*
X81061000Y-104933516D01*
X81020611Y-105136565D01*
X80941385Y-105327834D01*
X80826363Y-105499976D01*
X80679976Y-105646363D01*
X80507834Y-105761385D01*
X80316565Y-105840611D01*
X80113516Y-105881000D01*
X79906484Y-105881000D01*
X79703435Y-105840611D01*
X79512166Y-105761385D01*
X79340024Y-105646363D01*
X79193637Y-105499976D01*
X79078615Y-105327834D01*
X78999389Y-105136565D01*
X78959000Y-104933516D01*
X78959000Y-104726484D01*
X78999389Y-104523435D01*
X79078615Y-104332166D01*
X79193637Y-104160024D01*
X79340024Y-104013637D01*
X79512166Y-103898615D01*
X79703435Y-103819389D01*
X79906484Y-103779000D01*
X80113516Y-103779000D01*
X80316565Y-103819389D01*
X80316565Y-103819389D01*
G37*
G36*
X73816565Y-99319389D02*
X74007834Y-99398615D01*
X74179976Y-99513637D01*
X74326363Y-99660024D01*
X74441385Y-99832166D01*
X74520611Y-100023435D01*
X74561000Y-100226484D01*
X74561000Y-100433516D01*
X74520611Y-100636565D01*
X74441385Y-100827834D01*
X74326363Y-100999976D01*
X74179976Y-101146363D01*
X74007834Y-101261385D01*
X73816565Y-101340611D01*
X73613516Y-101381000D01*
X73406484Y-101381000D01*
X73203435Y-101340611D01*
X73012166Y-101261385D01*
X72840024Y-101146363D01*
X72693637Y-100999976D01*
X72578615Y-100827834D01*
X72499389Y-100636565D01*
X72459000Y-100433516D01*
X72459000Y-100226484D01*
X72499389Y-100023435D01*
X72578615Y-99832166D01*
X72693637Y-99660024D01*
X72840024Y-99513637D01*
X73012166Y-99398615D01*
X73203435Y-99319389D01*
X73406484Y-99279000D01*
X73613516Y-99279000D01*
X73816565Y-99319389D01*
X73816565Y-99319389D01*
G37*
G36*
X80316565Y-99319389D02*
X80507834Y-99398615D01*
X80679976Y-99513637D01*
X80826363Y-99660024D01*
X80941385Y-99832166D01*
X81020611Y-100023435D01*
X81061000Y-100226484D01*
X81061000Y-100433516D01*
X81020611Y-100636565D01*
X80941385Y-100827834D01*
X80826363Y-100999976D01*
X80679976Y-101146363D01*
X80507834Y-101261385D01*
X80316565Y-101340611D01*
X80113516Y-101381000D01*
X79906484Y-101381000D01*
X79703435Y-101340611D01*
X79512166Y-101261385D01*
X79340024Y-101146363D01*
X79193637Y-100999976D01*
X79078615Y-100827834D01*
X78999389Y-100636565D01*
X78959000Y-100433516D01*
X78959000Y-100226484D01*
X78999389Y-100023435D01*
X79078615Y-99832166D01*
X79193637Y-99660024D01*
X79340024Y-99513637D01*
X79512166Y-99398615D01*
X79703435Y-99319389D01*
X79906484Y-99279000D01*
X80113516Y-99279000D01*
X80316565Y-99319389D01*
X80316565Y-99319389D01*
G37*
G36*
X102056565Y-99319389D02*
X102247834Y-99398615D01*
X102419976Y-99513637D01*
X102566363Y-99660024D01*
X102681385Y-99832166D01*
X102760611Y-100023435D01*
X102801000Y-100226484D01*
X102801000Y-100433516D01*
X102760611Y-100636565D01*
X102681385Y-100827834D01*
X102566363Y-100999976D01*
X102419976Y-101146363D01*
X102247834Y-101261385D01*
X102056565Y-101340611D01*
X101853516Y-101381000D01*
X101646484Y-101381000D01*
X101443435Y-101340611D01*
X101252166Y-101261385D01*
X101080024Y-101146363D01*
X100933637Y-100999976D01*
X100818615Y-100827834D01*
X100739389Y-100636565D01*
X100699000Y-100433516D01*
X100699000Y-100226484D01*
X100739389Y-100023435D01*
X100818615Y-99832166D01*
X100933637Y-99660024D01*
X101080024Y-99513637D01*
X101252166Y-99398615D01*
X101443435Y-99319389D01*
X101646484Y-99279000D01*
X101853516Y-99279000D01*
X102056565Y-99319389D01*
X102056565Y-99319389D01*
G37*
G36*
X95556565Y-99319389D02*
X95747834Y-99398615D01*
X95919976Y-99513637D01*
X96066363Y-99660024D01*
X96181385Y-99832166D01*
X96260611Y-100023435D01*
X96301000Y-100226484D01*
X96301000Y-100433516D01*
X96260611Y-100636565D01*
X96181385Y-100827834D01*
X96066363Y-100999976D01*
X95919976Y-101146363D01*
X95747834Y-101261385D01*
X95556565Y-101340611D01*
X95353516Y-101381000D01*
X95146484Y-101381000D01*
X94943435Y-101340611D01*
X94752166Y-101261385D01*
X94580024Y-101146363D01*
X94433637Y-100999976D01*
X94318615Y-100827834D01*
X94239389Y-100636565D01*
X94199000Y-100433516D01*
X94199000Y-100226484D01*
X94239389Y-100023435D01*
X94318615Y-99832166D01*
X94433637Y-99660024D01*
X94580024Y-99513637D01*
X94752166Y-99398615D01*
X94943435Y-99319389D01*
X95146484Y-99279000D01*
X95353516Y-99279000D01*
X95556565Y-99319389D01*
X95556565Y-99319389D01*
G37*
G36*
X91606821Y-98221313D02*
X91606824Y-98221314D01*
X91606825Y-98221314D01*
X91767239Y-98269975D01*
X91767241Y-98269976D01*
X91767244Y-98269977D01*
X91915078Y-98348995D01*
X92044659Y-98455341D01*
X92151005Y-98584922D01*
X92230023Y-98732756D01*
X92278687Y-98893179D01*
X92295117Y-99060000D01*
X92278687Y-99226821D01*
X92278686Y-99226824D01*
X92278686Y-99226825D01*
X92250607Y-99319390D01*
X92230023Y-99387244D01*
X92151005Y-99535078D01*
X92044659Y-99664659D01*
X91915078Y-99771005D01*
X91767244Y-99850023D01*
X91767241Y-99850024D01*
X91767239Y-99850025D01*
X91606825Y-99898686D01*
X91606824Y-99898686D01*
X91606821Y-99898687D01*
X91481804Y-99911000D01*
X91398196Y-99911000D01*
X91273179Y-99898687D01*
X91273176Y-99898686D01*
X91273175Y-99898686D01*
X91112761Y-99850025D01*
X91112759Y-99850024D01*
X91112756Y-99850023D01*
X90964922Y-99771005D01*
X90835341Y-99664659D01*
X90728995Y-99535078D01*
X90649977Y-99387244D01*
X90629394Y-99319390D01*
X90601314Y-99226825D01*
X90601314Y-99226824D01*
X90601313Y-99226821D01*
X90584883Y-99060000D01*
X90601313Y-98893179D01*
X90649977Y-98732756D01*
X90728995Y-98584922D01*
X90835341Y-98455341D01*
X90964922Y-98348995D01*
X91112756Y-98269977D01*
X91112759Y-98269976D01*
X91112761Y-98269975D01*
X91273175Y-98221314D01*
X91273176Y-98221314D01*
X91273179Y-98221313D01*
X91398196Y-98209000D01*
X91481804Y-98209000D01*
X91606821Y-98221313D01*
X91606821Y-98221313D01*
G37*
G36*
X86526821Y-98221313D02*
X86526824Y-98221314D01*
X86526825Y-98221314D01*
X86687239Y-98269975D01*
X86687241Y-98269976D01*
X86687244Y-98269977D01*
X86835078Y-98348995D01*
X86964659Y-98455341D01*
X87071005Y-98584922D01*
X87150023Y-98732756D01*
X87198687Y-98893179D01*
X87215117Y-99060000D01*
X87198687Y-99226821D01*
X87198686Y-99226824D01*
X87198686Y-99226825D01*
X87170607Y-99319390D01*
X87150023Y-99387244D01*
X87071005Y-99535078D01*
X86964659Y-99664659D01*
X86835078Y-99771005D01*
X86687244Y-99850023D01*
X86687241Y-99850024D01*
X86687239Y-99850025D01*
X86526825Y-99898686D01*
X86526824Y-99898686D01*
X86526821Y-99898687D01*
X86401804Y-99911000D01*
X86318196Y-99911000D01*
X86193179Y-99898687D01*
X86193176Y-99898686D01*
X86193175Y-99898686D01*
X86032761Y-99850025D01*
X86032759Y-99850024D01*
X86032756Y-99850023D01*
X85884922Y-99771005D01*
X85755341Y-99664659D01*
X85648995Y-99535078D01*
X85569977Y-99387244D01*
X85549394Y-99319390D01*
X85521314Y-99226825D01*
X85521314Y-99226824D01*
X85521313Y-99226821D01*
X85504883Y-99060000D01*
X85521313Y-98893179D01*
X85569977Y-98732756D01*
X85648995Y-98584922D01*
X85755341Y-98455341D01*
X85884922Y-98348995D01*
X86032756Y-98269977D01*
X86032759Y-98269976D01*
X86032761Y-98269975D01*
X86193175Y-98221314D01*
X86193176Y-98221314D01*
X86193179Y-98221313D01*
X86318196Y-98209000D01*
X86401804Y-98209000D01*
X86526821Y-98221313D01*
X86526821Y-98221313D01*
G37*
G36*
X83986821Y-98221313D02*
X83986824Y-98221314D01*
X83986825Y-98221314D01*
X84147239Y-98269975D01*
X84147241Y-98269976D01*
X84147244Y-98269977D01*
X84295078Y-98348995D01*
X84424659Y-98455341D01*
X84531005Y-98584922D01*
X84610023Y-98732756D01*
X84658687Y-98893179D01*
X84675117Y-99060000D01*
X84658687Y-99226821D01*
X84658686Y-99226824D01*
X84658686Y-99226825D01*
X84630607Y-99319390D01*
X84610023Y-99387244D01*
X84531005Y-99535078D01*
X84424659Y-99664659D01*
X84295078Y-99771005D01*
X84147244Y-99850023D01*
X84147241Y-99850024D01*
X84147239Y-99850025D01*
X83986825Y-99898686D01*
X83986824Y-99898686D01*
X83986821Y-99898687D01*
X83861804Y-99911000D01*
X83778196Y-99911000D01*
X83653179Y-99898687D01*
X83653176Y-99898686D01*
X83653175Y-99898686D01*
X83492761Y-99850025D01*
X83492759Y-99850024D01*
X83492756Y-99850023D01*
X83344922Y-99771005D01*
X83215341Y-99664659D01*
X83108995Y-99535078D01*
X83029977Y-99387244D01*
X83009394Y-99319390D01*
X82981314Y-99226825D01*
X82981314Y-99226824D01*
X82981313Y-99226821D01*
X82964883Y-99060000D01*
X82981313Y-98893179D01*
X83029977Y-98732756D01*
X83108995Y-98584922D01*
X83215341Y-98455341D01*
X83344922Y-98348995D01*
X83492756Y-98269977D01*
X83492759Y-98269976D01*
X83492761Y-98269975D01*
X83653175Y-98221314D01*
X83653176Y-98221314D01*
X83653179Y-98221313D01*
X83778196Y-98209000D01*
X83861804Y-98209000D01*
X83986821Y-98221313D01*
X83986821Y-98221313D01*
G37*
G36*
X89066821Y-98221313D02*
X89066824Y-98221314D01*
X89066825Y-98221314D01*
X89227239Y-98269975D01*
X89227241Y-98269976D01*
X89227244Y-98269977D01*
X89375078Y-98348995D01*
X89504659Y-98455341D01*
X89611005Y-98584922D01*
X89690023Y-98732756D01*
X89738687Y-98893179D01*
X89755117Y-99060000D01*
X89738687Y-99226821D01*
X89738686Y-99226824D01*
X89738686Y-99226825D01*
X89710607Y-99319390D01*
X89690023Y-99387244D01*
X89611005Y-99535078D01*
X89504659Y-99664659D01*
X89375078Y-99771005D01*
X89227244Y-99850023D01*
X89227241Y-99850024D01*
X89227239Y-99850025D01*
X89066825Y-99898686D01*
X89066824Y-99898686D01*
X89066821Y-99898687D01*
X88941804Y-99911000D01*
X88858196Y-99911000D01*
X88733179Y-99898687D01*
X88733176Y-99898686D01*
X88733175Y-99898686D01*
X88572761Y-99850025D01*
X88572759Y-99850024D01*
X88572756Y-99850023D01*
X88424922Y-99771005D01*
X88295341Y-99664659D01*
X88188995Y-99535078D01*
X88109977Y-99387244D01*
X88089394Y-99319390D01*
X88061314Y-99226825D01*
X88061314Y-99226824D01*
X88061313Y-99226821D01*
X88044883Y-99060000D01*
X88061313Y-98893179D01*
X88109977Y-98732756D01*
X88188995Y-98584922D01*
X88295341Y-98455341D01*
X88424922Y-98348995D01*
X88572756Y-98269977D01*
X88572759Y-98269976D01*
X88572761Y-98269975D01*
X88733175Y-98221314D01*
X88733176Y-98221314D01*
X88733179Y-98221313D01*
X88858196Y-98209000D01*
X88941804Y-98209000D01*
X89066821Y-98221313D01*
X89066821Y-98221313D01*
G37*
G36*
X83930442Y-94355518D02*
X83996627Y-94362037D01*
X84109853Y-94396384D01*
X84166467Y-94413557D01*
X84305087Y-94487652D01*
X84322991Y-94497222D01*
X84358729Y-94526552D01*
X84460186Y-94609814D01*
X84543448Y-94711271D01*
X84572778Y-94747009D01*
X84572779Y-94747011D01*
X84656443Y-94903533D01*
X84656443Y-94903534D01*
X84707963Y-95073373D01*
X84725359Y-95250000D01*
X84707963Y-95426627D01*
X84673616Y-95539853D01*
X84656443Y-95596467D01*
X84584132Y-95731750D01*
X84572778Y-95752991D01*
X84547101Y-95784278D01*
X84460186Y-95890186D01*
X84368229Y-95965652D01*
X84322991Y-96002778D01*
X84322989Y-96002779D01*
X84166467Y-96086443D01*
X84109853Y-96103616D01*
X83996627Y-96137963D01*
X83930442Y-96144482D01*
X83864260Y-96151000D01*
X83775740Y-96151000D01*
X83709558Y-96144482D01*
X83643373Y-96137963D01*
X83530147Y-96103616D01*
X83473533Y-96086443D01*
X83317011Y-96002779D01*
X83317009Y-96002778D01*
X83271771Y-95965652D01*
X83179814Y-95890186D01*
X83092899Y-95784278D01*
X83067222Y-95752991D01*
X83055868Y-95731750D01*
X82983557Y-95596467D01*
X82966384Y-95539853D01*
X82932037Y-95426627D01*
X82914641Y-95250000D01*
X82932037Y-95073373D01*
X82983557Y-94903534D01*
X82983557Y-94903533D01*
X83067221Y-94747011D01*
X83067222Y-94747009D01*
X83096552Y-94711271D01*
X83179814Y-94609814D01*
X83281271Y-94526552D01*
X83317009Y-94497222D01*
X83334913Y-94487652D01*
X83473533Y-94413557D01*
X83530147Y-94396384D01*
X83643373Y-94362037D01*
X83709558Y-94355518D01*
X83775740Y-94349000D01*
X83864260Y-94349000D01*
X83930442Y-94355518D01*
X83930442Y-94355518D01*
G37*
G36*
X92341000Y-96151000D02*
X90539000Y-96151000D01*
X90539000Y-94349000D01*
X92341000Y-94349000D01*
X92341000Y-96151000D01*
X92341000Y-96151000D01*
G37*
G36*
X89010442Y-94355518D02*
X89076627Y-94362037D01*
X89189853Y-94396384D01*
X89246467Y-94413557D01*
X89385087Y-94487652D01*
X89402991Y-94497222D01*
X89438729Y-94526552D01*
X89540186Y-94609814D01*
X89623448Y-94711271D01*
X89652778Y-94747009D01*
X89652779Y-94747011D01*
X89736443Y-94903533D01*
X89736443Y-94903534D01*
X89787963Y-95073373D01*
X89805359Y-95250000D01*
X89787963Y-95426627D01*
X89753616Y-95539853D01*
X89736443Y-95596467D01*
X89664132Y-95731750D01*
X89652778Y-95752991D01*
X89627101Y-95784278D01*
X89540186Y-95890186D01*
X89448229Y-95965652D01*
X89402991Y-96002778D01*
X89402989Y-96002779D01*
X89246467Y-96086443D01*
X89189853Y-96103616D01*
X89076627Y-96137963D01*
X89010442Y-96144482D01*
X88944260Y-96151000D01*
X88855740Y-96151000D01*
X88789558Y-96144482D01*
X88723373Y-96137963D01*
X88610147Y-96103616D01*
X88553533Y-96086443D01*
X88397011Y-96002779D01*
X88397009Y-96002778D01*
X88351771Y-95965652D01*
X88259814Y-95890186D01*
X88172899Y-95784278D01*
X88147222Y-95752991D01*
X88135868Y-95731750D01*
X88063557Y-95596467D01*
X88046384Y-95539853D01*
X88012037Y-95426627D01*
X87994641Y-95250000D01*
X88012037Y-95073373D01*
X88063557Y-94903534D01*
X88063557Y-94903533D01*
X88147221Y-94747011D01*
X88147222Y-94747009D01*
X88176552Y-94711271D01*
X88259814Y-94609814D01*
X88361271Y-94526552D01*
X88397009Y-94497222D01*
X88414913Y-94487652D01*
X88553533Y-94413557D01*
X88610147Y-94396384D01*
X88723373Y-94362037D01*
X88789558Y-94355518D01*
X88855740Y-94349000D01*
X88944260Y-94349000D01*
X89010442Y-94355518D01*
X89010442Y-94355518D01*
G37*
G36*
X86470442Y-94355518D02*
X86536627Y-94362037D01*
X86649853Y-94396384D01*
X86706467Y-94413557D01*
X86845087Y-94487652D01*
X86862991Y-94497222D01*
X86898729Y-94526552D01*
X87000186Y-94609814D01*
X87083448Y-94711271D01*
X87112778Y-94747009D01*
X87112779Y-94747011D01*
X87196443Y-94903533D01*
X87196443Y-94903534D01*
X87247963Y-95073373D01*
X87265359Y-95250000D01*
X87247963Y-95426627D01*
X87213616Y-95539853D01*
X87196443Y-95596467D01*
X87124132Y-95731750D01*
X87112778Y-95752991D01*
X87087101Y-95784278D01*
X87000186Y-95890186D01*
X86908229Y-95965652D01*
X86862991Y-96002778D01*
X86862989Y-96002779D01*
X86706467Y-96086443D01*
X86649853Y-96103616D01*
X86536627Y-96137963D01*
X86470442Y-96144482D01*
X86404260Y-96151000D01*
X86315740Y-96151000D01*
X86249558Y-96144482D01*
X86183373Y-96137963D01*
X86070147Y-96103616D01*
X86013533Y-96086443D01*
X85857011Y-96002779D01*
X85857009Y-96002778D01*
X85811771Y-95965652D01*
X85719814Y-95890186D01*
X85632899Y-95784278D01*
X85607222Y-95752991D01*
X85595868Y-95731750D01*
X85523557Y-95596467D01*
X85506384Y-95539853D01*
X85472037Y-95426627D01*
X85454641Y-95250000D01*
X85472037Y-95073373D01*
X85523557Y-94903534D01*
X85523557Y-94903533D01*
X85607221Y-94747011D01*
X85607222Y-94747009D01*
X85636552Y-94711271D01*
X85719814Y-94609814D01*
X85821271Y-94526552D01*
X85857009Y-94497222D01*
X85874913Y-94487652D01*
X86013533Y-94413557D01*
X86070147Y-94396384D01*
X86183373Y-94362037D01*
X86249558Y-94355518D01*
X86315740Y-94349000D01*
X86404260Y-94349000D01*
X86470442Y-94355518D01*
X86470442Y-94355518D01*
G37*
G36*
X100702466Y-94503565D02*
X100741137Y-94515296D01*
X100776779Y-94534348D01*
X100808017Y-94559983D01*
X100833652Y-94591221D01*
X100852704Y-94626863D01*
X100864435Y-94665534D01*
X100869000Y-94711888D01*
X100869000Y-95788112D01*
X100864435Y-95834466D01*
X100852704Y-95873137D01*
X100833652Y-95908779D01*
X100808017Y-95940017D01*
X100776779Y-95965652D01*
X100741137Y-95984704D01*
X100702466Y-95996435D01*
X100656112Y-96001000D01*
X100004888Y-96001000D01*
X99958534Y-95996435D01*
X99919863Y-95984704D01*
X99884221Y-95965652D01*
X99852983Y-95940017D01*
X99827348Y-95908779D01*
X99808296Y-95873137D01*
X99796565Y-95834466D01*
X99792000Y-95788112D01*
X99792000Y-94711888D01*
X99796565Y-94665534D01*
X99808296Y-94626863D01*
X99827348Y-94591221D01*
X99852983Y-94559983D01*
X99884221Y-94534348D01*
X99919863Y-94515296D01*
X99958534Y-94503565D01*
X100004888Y-94499000D01*
X100656112Y-94499000D01*
X100702466Y-94503565D01*
X100702466Y-94503565D01*
G37*
G36*
X102577466Y-94503565D02*
X102616137Y-94515296D01*
X102651779Y-94534348D01*
X102683017Y-94559983D01*
X102708652Y-94591221D01*
X102727704Y-94626863D01*
X102739435Y-94665534D01*
X102744000Y-94711888D01*
X102744000Y-95788112D01*
X102739435Y-95834466D01*
X102727704Y-95873137D01*
X102708652Y-95908779D01*
X102683017Y-95940017D01*
X102651779Y-95965652D01*
X102616137Y-95984704D01*
X102577466Y-95996435D01*
X102531112Y-96001000D01*
X101879888Y-96001000D01*
X101833534Y-95996435D01*
X101794863Y-95984704D01*
X101759221Y-95965652D01*
X101727983Y-95940017D01*
X101702348Y-95908779D01*
X101683296Y-95873137D01*
X101671565Y-95834466D01*
X101667000Y-95788112D01*
X101667000Y-94711888D01*
X101671565Y-94665534D01*
X101683296Y-94626863D01*
X101702348Y-94591221D01*
X101727983Y-94559983D01*
X101759221Y-94534348D01*
X101794863Y-94515296D01*
X101833534Y-94503565D01*
X101879888Y-94499000D01*
X102531112Y-94499000D01*
X102577466Y-94503565D01*
X102577466Y-94503565D01*
G37*
G36*
X73094466Y-94503565D02*
X73133137Y-94515296D01*
X73168779Y-94534348D01*
X73200017Y-94559983D01*
X73225652Y-94591221D01*
X73244704Y-94626863D01*
X73256435Y-94665534D01*
X73261000Y-94711888D01*
X73261000Y-95788112D01*
X73256435Y-95834466D01*
X73244704Y-95873137D01*
X73225652Y-95908779D01*
X73200017Y-95940017D01*
X73168779Y-95965652D01*
X73133137Y-95984704D01*
X73094466Y-95996435D01*
X73048112Y-96001000D01*
X72396888Y-96001000D01*
X72350534Y-95996435D01*
X72311863Y-95984704D01*
X72276221Y-95965652D01*
X72244983Y-95940017D01*
X72219348Y-95908779D01*
X72200296Y-95873137D01*
X72188565Y-95834466D01*
X72184000Y-95788112D01*
X72184000Y-94711888D01*
X72188565Y-94665534D01*
X72200296Y-94626863D01*
X72219348Y-94591221D01*
X72244983Y-94559983D01*
X72276221Y-94534348D01*
X72311863Y-94515296D01*
X72350534Y-94503565D01*
X72396888Y-94499000D01*
X73048112Y-94499000D01*
X73094466Y-94503565D01*
X73094466Y-94503565D01*
G37*
G36*
X74969466Y-94503565D02*
X75008137Y-94515296D01*
X75043779Y-94534348D01*
X75075017Y-94559983D01*
X75100652Y-94591221D01*
X75119704Y-94626863D01*
X75131435Y-94665534D01*
X75136000Y-94711888D01*
X75136000Y-95788112D01*
X75131435Y-95834466D01*
X75119704Y-95873137D01*
X75100652Y-95908779D01*
X75075017Y-95940017D01*
X75043779Y-95965652D01*
X75008137Y-95984704D01*
X74969466Y-95996435D01*
X74923112Y-96001000D01*
X74271888Y-96001000D01*
X74225534Y-95996435D01*
X74186863Y-95984704D01*
X74151221Y-95965652D01*
X74119983Y-95940017D01*
X74094348Y-95908779D01*
X74075296Y-95873137D01*
X74063565Y-95834466D01*
X74059000Y-95788112D01*
X74059000Y-94711888D01*
X74063565Y-94665534D01*
X74075296Y-94626863D01*
X74094348Y-94591221D01*
X74119983Y-94559983D01*
X74151221Y-94534348D01*
X74186863Y-94515296D01*
X74225534Y-94503565D01*
X74271888Y-94499000D01*
X74923112Y-94499000D01*
X74969466Y-94503565D01*
X74969466Y-94503565D01*
G37*
G36*
X97829466Y-94503565D02*
X97868137Y-94515296D01*
X97903779Y-94534348D01*
X97935017Y-94559983D01*
X97960652Y-94591221D01*
X97979704Y-94626863D01*
X97991435Y-94665534D01*
X97996000Y-94711888D01*
X97996000Y-95788112D01*
X97991435Y-95834466D01*
X97979704Y-95873137D01*
X97960652Y-95908779D01*
X97935017Y-95940017D01*
X97903779Y-95965652D01*
X97868137Y-95984704D01*
X97829466Y-95996435D01*
X97783112Y-96001000D01*
X97131888Y-96001000D01*
X97085534Y-95996435D01*
X97046863Y-95984704D01*
X97011221Y-95965652D01*
X96979983Y-95940017D01*
X96954348Y-95908779D01*
X96935296Y-95873137D01*
X96923565Y-95834466D01*
X96919000Y-95788112D01*
X96919000Y-94711888D01*
X96923565Y-94665534D01*
X96935296Y-94626863D01*
X96954348Y-94591221D01*
X96979983Y-94559983D01*
X97011221Y-94534348D01*
X97046863Y-94515296D01*
X97085534Y-94503565D01*
X97131888Y-94499000D01*
X97783112Y-94499000D01*
X97829466Y-94503565D01*
X97829466Y-94503565D01*
G37*
G36*
X95954466Y-94503565D02*
X95993137Y-94515296D01*
X96028779Y-94534348D01*
X96060017Y-94559983D01*
X96085652Y-94591221D01*
X96104704Y-94626863D01*
X96116435Y-94665534D01*
X96121000Y-94711888D01*
X96121000Y-95788112D01*
X96116435Y-95834466D01*
X96104704Y-95873137D01*
X96085652Y-95908779D01*
X96060017Y-95940017D01*
X96028779Y-95965652D01*
X95993137Y-95984704D01*
X95954466Y-95996435D01*
X95908112Y-96001000D01*
X95256888Y-96001000D01*
X95210534Y-95996435D01*
X95171863Y-95984704D01*
X95136221Y-95965652D01*
X95104983Y-95940017D01*
X95079348Y-95908779D01*
X95060296Y-95873137D01*
X95048565Y-95834466D01*
X95044000Y-95788112D01*
X95044000Y-94711888D01*
X95048565Y-94665534D01*
X95060296Y-94626863D01*
X95079348Y-94591221D01*
X95104983Y-94559983D01*
X95136221Y-94534348D01*
X95171863Y-94515296D01*
X95210534Y-94503565D01*
X95256888Y-94499000D01*
X95908112Y-94499000D01*
X95954466Y-94503565D01*
X95954466Y-94503565D01*
G37*
G36*
X77841966Y-94503565D02*
X77880637Y-94515296D01*
X77916279Y-94534348D01*
X77947517Y-94559983D01*
X77973152Y-94591221D01*
X77992204Y-94626863D01*
X78003935Y-94665534D01*
X78008500Y-94711888D01*
X78008500Y-95788112D01*
X78003935Y-95834466D01*
X77992204Y-95873137D01*
X77973152Y-95908779D01*
X77947517Y-95940017D01*
X77916279Y-95965652D01*
X77880637Y-95984704D01*
X77841966Y-95996435D01*
X77795612Y-96001000D01*
X77144388Y-96001000D01*
X77098034Y-95996435D01*
X77059363Y-95984704D01*
X77023721Y-95965652D01*
X76992483Y-95940017D01*
X76966848Y-95908779D01*
X76947796Y-95873137D01*
X76936065Y-95834466D01*
X76931500Y-95788112D01*
X76931500Y-94711888D01*
X76936065Y-94665534D01*
X76947796Y-94626863D01*
X76966848Y-94591221D01*
X76992483Y-94559983D01*
X77023721Y-94534348D01*
X77059363Y-94515296D01*
X77098034Y-94503565D01*
X77144388Y-94499000D01*
X77795612Y-94499000D01*
X77841966Y-94503565D01*
X77841966Y-94503565D01*
G37*
G36*
X79716966Y-94503565D02*
X79755637Y-94515296D01*
X79791279Y-94534348D01*
X79822517Y-94559983D01*
X79848152Y-94591221D01*
X79867204Y-94626863D01*
X79878935Y-94665534D01*
X79883500Y-94711888D01*
X79883500Y-95788112D01*
X79878935Y-95834466D01*
X79867204Y-95873137D01*
X79848152Y-95908779D01*
X79822517Y-95940017D01*
X79791279Y-95965652D01*
X79755637Y-95984704D01*
X79716966Y-95996435D01*
X79670612Y-96001000D01*
X79019388Y-96001000D01*
X78973034Y-95996435D01*
X78934363Y-95984704D01*
X78898721Y-95965652D01*
X78867483Y-95940017D01*
X78841848Y-95908779D01*
X78822796Y-95873137D01*
X78811065Y-95834466D01*
X78806500Y-95788112D01*
X78806500Y-94711888D01*
X78811065Y-94665534D01*
X78822796Y-94626863D01*
X78841848Y-94591221D01*
X78867483Y-94559983D01*
X78898721Y-94534348D01*
X78934363Y-94515296D01*
X78973034Y-94503565D01*
X79019388Y-94499000D01*
X79670612Y-94499000D01*
X79716966Y-94503565D01*
X79716966Y-94503565D01*
G37*
M02*
