G04 #@! TF.GenerationSoftware,KiCad,Pcbnew,(5.0.1-3-g963ef8bb5)*
G04 #@! TF.CreationDate,2019-02-13T22:27:56+01:00*
G04 #@! TF.ProjectId,main,6D61696E2E6B696361645F7063620000,rev?*
G04 #@! TF.SameCoordinates,Original*
G04 #@! TF.FileFunction,Legend,Top*
G04 #@! TF.FilePolarity,Positive*
%FSLAX46Y46*%
G04 Gerber Fmt 4.6, Leading zero omitted, Abs format (unit mm)*
G04 Created by KiCad (PCBNEW (5.0.1-3-g963ef8bb5)) date 2019 February 13, Wednesday 22:27:56*
%MOMM*%
%LPD*%
G01*
G04 APERTURE LIST*
%ADD10C,0.120000*%
%ADD11C,0.150000*%
G04 APERTURE END LIST*
D10*
G04 #@! TO.C,D1*
X76722500Y-96210000D02*
X79407500Y-96210000D01*
X76722500Y-94290000D02*
X76722500Y-96210000D01*
X79407500Y-94290000D02*
X76722500Y-94290000D01*
G04 #@! TO.C,D2*
X97520000Y-94290000D02*
X94835000Y-94290000D01*
X94835000Y-94290000D02*
X94835000Y-96210000D01*
X94835000Y-96210000D02*
X97520000Y-96210000D01*
G04 #@! TO.C,D3*
X102600000Y-113340000D02*
X99915000Y-113340000D01*
X99915000Y-113340000D02*
X99915000Y-115260000D01*
X99915000Y-115260000D02*
X102600000Y-115260000D01*
G04 #@! TO.C,J1*
X82490000Y-93920000D02*
X82490000Y-96580000D01*
X90170000Y-93920000D02*
X82490000Y-93920000D01*
X90170000Y-96580000D02*
X82490000Y-96580000D01*
X90170000Y-93920000D02*
X90170000Y-96580000D01*
X91440000Y-93920000D02*
X92770000Y-93920000D01*
X92770000Y-93920000D02*
X92770000Y-95250000D01*
G04 #@! TO.C,J2*
X75410000Y-109950000D02*
X75410000Y-114670000D01*
X75410000Y-114670000D02*
X81530000Y-114670000D01*
X81530000Y-114670000D02*
X81530000Y-109950000D01*
X81530000Y-109950000D02*
X75410000Y-109950000D01*
X77170000Y-109950000D02*
X77170000Y-109750000D01*
X77170000Y-109750000D02*
X76870000Y-109750000D01*
X76870000Y-109750000D02*
X76870000Y-109950000D01*
X77170000Y-109850000D02*
X76870000Y-109850000D01*
X77970000Y-109950000D02*
X77970000Y-110560000D01*
X77970000Y-110560000D02*
X76020000Y-110560000D01*
X76020000Y-110560000D02*
X76020000Y-114060000D01*
X76020000Y-114060000D02*
X80920000Y-114060000D01*
X80920000Y-114060000D02*
X80920000Y-110560000D01*
X80920000Y-110560000D02*
X78970000Y-110560000D01*
X78970000Y-110560000D02*
X78970000Y-109950000D01*
X75410000Y-111260000D02*
X76020000Y-111260000D01*
X75410000Y-112560000D02*
X76020000Y-112560000D01*
X81530000Y-111260000D02*
X80920000Y-111260000D01*
X81530000Y-112560000D02*
X80920000Y-112560000D01*
X78370000Y-114060000D02*
X78370000Y-113560000D01*
X78370000Y-113560000D02*
X78570000Y-113560000D01*
X78570000Y-113560000D02*
X78570000Y-114060000D01*
X78470000Y-114060000D02*
X78470000Y-113560000D01*
X76360000Y-109650000D02*
X75110000Y-109650000D01*
X75110000Y-109650000D02*
X75110000Y-110900000D01*
G04 #@! TO.C,R1*
X73401422Y-95960000D02*
X73918578Y-95960000D01*
X73401422Y-94540000D02*
X73918578Y-94540000D01*
G04 #@! TO.C,R2*
X101009422Y-94540000D02*
X101526578Y-94540000D01*
X101009422Y-95960000D02*
X101526578Y-95960000D01*
G04 #@! TO.C,R3*
X96261422Y-113590000D02*
X96778578Y-113590000D01*
X96261422Y-115010000D02*
X96778578Y-115010000D01*
G04 #@! TO.C,R4*
X96261422Y-109780000D02*
X96778578Y-109780000D01*
X96261422Y-111200000D02*
X96778578Y-111200000D01*
G04 #@! TO.C,R5*
X101341422Y-111200000D02*
X101858578Y-111200000D01*
X101341422Y-109780000D02*
X101858578Y-109780000D01*
G04 #@! TO.C,SW1*
X74510000Y-105830000D02*
X79010000Y-105830000D01*
X73260000Y-101830000D02*
X73260000Y-103330000D01*
X79010000Y-99330000D02*
X74510000Y-99330000D01*
X80260000Y-103330000D02*
X80260000Y-101830000D01*
G04 #@! TO.C,SW2*
X102000000Y-103330000D02*
X102000000Y-101830000D01*
X100750000Y-99330000D02*
X96250000Y-99330000D01*
X95000000Y-101830000D02*
X95000000Y-103330000D01*
X96250000Y-105830000D02*
X100750000Y-105830000D01*
D11*
G04 #@! TO.C,U1*
X85040000Y-109640000D02*
X85040000Y-109845000D01*
X90540000Y-109640000D02*
X90540000Y-109940000D01*
X90540000Y-115150000D02*
X90540000Y-114850000D01*
X85040000Y-115150000D02*
X85040000Y-114850000D01*
X85040000Y-109640000D02*
X90540000Y-109640000D01*
X85040000Y-115150000D02*
X90540000Y-115150000D01*
X85040000Y-109845000D02*
X83290000Y-109845000D01*
D10*
G04 #@! TO.C,U2*
X82490000Y-101870000D02*
G75*
G02X82490000Y-103870000I0J-1000000D01*
G01*
X82490000Y-103870000D02*
X82490000Y-105520000D01*
X82490000Y-105520000D02*
X92770000Y-105520000D01*
X92770000Y-105520000D02*
X92770000Y-100220000D01*
X92770000Y-100220000D02*
X82490000Y-100220000D01*
X82490000Y-100220000D02*
X82490000Y-101870000D01*
G04 #@! TO.C,SW3*
X69100000Y-116620000D02*
X70300000Y-116620000D01*
X69100000Y-115420000D02*
X69100000Y-116620000D01*
X73600000Y-107120000D02*
X73600000Y-108320000D01*
X69400000Y-107120000D02*
X73600000Y-107120000D01*
X69400000Y-108320000D02*
X69400000Y-107120000D01*
X73600000Y-116320000D02*
X73600000Y-115120000D01*
X69400000Y-116320000D02*
X73600000Y-116320000D01*
X69400000Y-115120000D02*
X69400000Y-116320000D01*
G04 #@! TO.C,D1*
D11*
X77764642Y-97352380D02*
X77288452Y-97352380D01*
X77288452Y-96352380D01*
X78097976Y-96828571D02*
X78431309Y-96828571D01*
X78574166Y-97352380D02*
X78097976Y-97352380D01*
X78097976Y-96352380D01*
X78574166Y-96352380D01*
X79002738Y-97352380D02*
X79002738Y-96352380D01*
X79240833Y-96352380D01*
X79383690Y-96400000D01*
X79478928Y-96495238D01*
X79526547Y-96590476D01*
X79574166Y-96780952D01*
X79574166Y-96923809D01*
X79526547Y-97114285D01*
X79478928Y-97209523D01*
X79383690Y-97304761D01*
X79240833Y-97352380D01*
X79002738Y-97352380D01*
G04 #@! TO.C,D2*
X95877142Y-97352380D02*
X95400952Y-97352380D01*
X95400952Y-96352380D01*
X96210476Y-96828571D02*
X96543809Y-96828571D01*
X96686666Y-97352380D02*
X96210476Y-97352380D01*
X96210476Y-96352380D01*
X96686666Y-96352380D01*
X97115238Y-97352380D02*
X97115238Y-96352380D01*
X97353333Y-96352380D01*
X97496190Y-96400000D01*
X97591428Y-96495238D01*
X97639047Y-96590476D01*
X97686666Y-96780952D01*
X97686666Y-96923809D01*
X97639047Y-97114285D01*
X97591428Y-97209523D01*
X97496190Y-97304761D01*
X97353333Y-97352380D01*
X97115238Y-97352380D01*
G04 #@! TO.C,D3*
X100957142Y-116402380D02*
X100480952Y-116402380D01*
X100480952Y-115402380D01*
X101290476Y-115878571D02*
X101623809Y-115878571D01*
X101766666Y-116402380D02*
X101290476Y-116402380D01*
X101290476Y-115402380D01*
X101766666Y-115402380D01*
X102195238Y-116402380D02*
X102195238Y-115402380D01*
X102433333Y-115402380D01*
X102576190Y-115450000D01*
X102671428Y-115545238D01*
X102719047Y-115640476D01*
X102766666Y-115830952D01*
X102766666Y-115973809D01*
X102719047Y-116164285D01*
X102671428Y-116259523D01*
X102576190Y-116354761D01*
X102433333Y-116402380D01*
X102195238Y-116402380D01*
G04 #@! TO.C,J1*
X81942380Y-96154761D02*
X80942380Y-96154761D01*
X81656666Y-95821428D01*
X80942380Y-95488095D01*
X81942380Y-95488095D01*
X80942380Y-95107142D02*
X81942380Y-94869047D01*
X81228095Y-94678571D01*
X81942380Y-94488095D01*
X80942380Y-94250000D01*
G04 #@! TO.C,R1*
X72374285Y-96352380D02*
X72993333Y-96352380D01*
X72660000Y-96733333D01*
X72802857Y-96733333D01*
X72898095Y-96780952D01*
X72945714Y-96828571D01*
X72993333Y-96923809D01*
X72993333Y-97161904D01*
X72945714Y-97257142D01*
X72898095Y-97304761D01*
X72802857Y-97352380D01*
X72517142Y-97352380D01*
X72421904Y-97304761D01*
X72374285Y-97257142D01*
X73326666Y-96352380D02*
X73945714Y-96352380D01*
X73612380Y-96733333D01*
X73755238Y-96733333D01*
X73850476Y-96780952D01*
X73898095Y-96828571D01*
X73945714Y-96923809D01*
X73945714Y-97161904D01*
X73898095Y-97257142D01*
X73850476Y-97304761D01*
X73755238Y-97352380D01*
X73469523Y-97352380D01*
X73374285Y-97304761D01*
X73326666Y-97257142D01*
X74564761Y-96352380D02*
X74660000Y-96352380D01*
X74755238Y-96400000D01*
X74802857Y-96447619D01*
X74850476Y-96542857D01*
X74898095Y-96733333D01*
X74898095Y-96971428D01*
X74850476Y-97161904D01*
X74802857Y-97257142D01*
X74755238Y-97304761D01*
X74660000Y-97352380D01*
X74564761Y-97352380D01*
X74469523Y-97304761D01*
X74421904Y-97257142D01*
X74374285Y-97161904D01*
X74326666Y-96971428D01*
X74326666Y-96733333D01*
X74374285Y-96542857D01*
X74421904Y-96447619D01*
X74469523Y-96400000D01*
X74564761Y-96352380D01*
G04 #@! TO.C,R2*
X99982285Y-96352380D02*
X100601333Y-96352380D01*
X100268000Y-96733333D01*
X100410857Y-96733333D01*
X100506095Y-96780952D01*
X100553714Y-96828571D01*
X100601333Y-96923809D01*
X100601333Y-97161904D01*
X100553714Y-97257142D01*
X100506095Y-97304761D01*
X100410857Y-97352380D01*
X100125142Y-97352380D01*
X100029904Y-97304761D01*
X99982285Y-97257142D01*
X100934666Y-96352380D02*
X101553714Y-96352380D01*
X101220380Y-96733333D01*
X101363238Y-96733333D01*
X101458476Y-96780952D01*
X101506095Y-96828571D01*
X101553714Y-96923809D01*
X101553714Y-97161904D01*
X101506095Y-97257142D01*
X101458476Y-97304761D01*
X101363238Y-97352380D01*
X101077523Y-97352380D01*
X100982285Y-97304761D01*
X100934666Y-97257142D01*
X102172761Y-96352380D02*
X102268000Y-96352380D01*
X102363238Y-96400000D01*
X102410857Y-96447619D01*
X102458476Y-96542857D01*
X102506095Y-96733333D01*
X102506095Y-96971428D01*
X102458476Y-97161904D01*
X102410857Y-97257142D01*
X102363238Y-97304761D01*
X102268000Y-97352380D01*
X102172761Y-97352380D01*
X102077523Y-97304761D01*
X102029904Y-97257142D01*
X101982285Y-97161904D01*
X101934666Y-96971428D01*
X101934666Y-96733333D01*
X101982285Y-96542857D01*
X102029904Y-96447619D01*
X102077523Y-96400000D01*
X102172761Y-96352380D01*
G04 #@! TO.C,R3*
X95234285Y-115402380D02*
X95853333Y-115402380D01*
X95520000Y-115783333D01*
X95662857Y-115783333D01*
X95758095Y-115830952D01*
X95805714Y-115878571D01*
X95853333Y-115973809D01*
X95853333Y-116211904D01*
X95805714Y-116307142D01*
X95758095Y-116354761D01*
X95662857Y-116402380D01*
X95377142Y-116402380D01*
X95281904Y-116354761D01*
X95234285Y-116307142D01*
X96186666Y-115402380D02*
X96805714Y-115402380D01*
X96472380Y-115783333D01*
X96615238Y-115783333D01*
X96710476Y-115830952D01*
X96758095Y-115878571D01*
X96805714Y-115973809D01*
X96805714Y-116211904D01*
X96758095Y-116307142D01*
X96710476Y-116354761D01*
X96615238Y-116402380D01*
X96329523Y-116402380D01*
X96234285Y-116354761D01*
X96186666Y-116307142D01*
X97424761Y-115402380D02*
X97520000Y-115402380D01*
X97615238Y-115450000D01*
X97662857Y-115497619D01*
X97710476Y-115592857D01*
X97758095Y-115783333D01*
X97758095Y-116021428D01*
X97710476Y-116211904D01*
X97662857Y-116307142D01*
X97615238Y-116354761D01*
X97520000Y-116402380D01*
X97424761Y-116402380D01*
X97329523Y-116354761D01*
X97281904Y-116307142D01*
X97234285Y-116211904D01*
X97186666Y-116021428D01*
X97186666Y-115783333D01*
X97234285Y-115592857D01*
X97281904Y-115497619D01*
X97329523Y-115450000D01*
X97424761Y-115402380D01*
G04 #@! TO.C,R4*
X95829523Y-112592380D02*
X95258095Y-112592380D01*
X95543809Y-112592380D02*
X95543809Y-111592380D01*
X95448571Y-111735238D01*
X95353333Y-111830476D01*
X95258095Y-111878095D01*
X96448571Y-111592380D02*
X96543809Y-111592380D01*
X96639047Y-111640000D01*
X96686666Y-111687619D01*
X96734285Y-111782857D01*
X96781904Y-111973333D01*
X96781904Y-112211428D01*
X96734285Y-112401904D01*
X96686666Y-112497142D01*
X96639047Y-112544761D01*
X96543809Y-112592380D01*
X96448571Y-112592380D01*
X96353333Y-112544761D01*
X96305714Y-112497142D01*
X96258095Y-112401904D01*
X96210476Y-112211428D01*
X96210476Y-111973333D01*
X96258095Y-111782857D01*
X96305714Y-111687619D01*
X96353333Y-111640000D01*
X96448571Y-111592380D01*
X97210476Y-112592380D02*
X97210476Y-111592380D01*
X97781904Y-112592380D02*
X97353333Y-112020952D01*
X97781904Y-111592380D02*
X97210476Y-112163809D01*
G04 #@! TO.C,R5*
X100909523Y-112592380D02*
X100338095Y-112592380D01*
X100623809Y-112592380D02*
X100623809Y-111592380D01*
X100528571Y-111735238D01*
X100433333Y-111830476D01*
X100338095Y-111878095D01*
X101528571Y-111592380D02*
X101623809Y-111592380D01*
X101719047Y-111640000D01*
X101766666Y-111687619D01*
X101814285Y-111782857D01*
X101861904Y-111973333D01*
X101861904Y-112211428D01*
X101814285Y-112401904D01*
X101766666Y-112497142D01*
X101719047Y-112544761D01*
X101623809Y-112592380D01*
X101528571Y-112592380D01*
X101433333Y-112544761D01*
X101385714Y-112497142D01*
X101338095Y-112401904D01*
X101290476Y-112211428D01*
X101290476Y-111973333D01*
X101338095Y-111782857D01*
X101385714Y-111687619D01*
X101433333Y-111640000D01*
X101528571Y-111592380D01*
X102290476Y-112592380D02*
X102290476Y-111592380D01*
X102861904Y-112592380D02*
X102433333Y-112020952D01*
X102861904Y-111592380D02*
X102290476Y-112163809D01*
G04 #@! TO.C,SW1*
X75426666Y-107434761D02*
X75521904Y-107482380D01*
X75712380Y-107482380D01*
X75807619Y-107434761D01*
X75855238Y-107339523D01*
X75855238Y-107291904D01*
X75807619Y-107196666D01*
X75712380Y-107149047D01*
X75569523Y-107149047D01*
X75474285Y-107101428D01*
X75426666Y-107006190D01*
X75426666Y-106958571D01*
X75474285Y-106863333D01*
X75569523Y-106815714D01*
X75712380Y-106815714D01*
X75807619Y-106863333D01*
X76664761Y-107434761D02*
X76569523Y-107482380D01*
X76379047Y-107482380D01*
X76283809Y-107434761D01*
X76236190Y-107339523D01*
X76236190Y-106958571D01*
X76283809Y-106863333D01*
X76379047Y-106815714D01*
X76569523Y-106815714D01*
X76664761Y-106863333D01*
X76712380Y-106958571D01*
X76712380Y-107053809D01*
X76236190Y-107149047D01*
X76998095Y-106815714D02*
X77379047Y-106815714D01*
X77140952Y-106482380D02*
X77140952Y-107339523D01*
X77188571Y-107434761D01*
X77283809Y-107482380D01*
X77379047Y-107482380D01*
X78140952Y-106815714D02*
X78140952Y-107482380D01*
X77712380Y-106815714D02*
X77712380Y-107339523D01*
X77760000Y-107434761D01*
X77855238Y-107482380D01*
X77998095Y-107482380D01*
X78093333Y-107434761D01*
X78140952Y-107387142D01*
X78617142Y-106815714D02*
X78617142Y-107815714D01*
X78617142Y-106863333D02*
X78712380Y-106815714D01*
X78902857Y-106815714D01*
X78998095Y-106863333D01*
X79045714Y-106910952D01*
X79093333Y-107006190D01*
X79093333Y-107291904D01*
X79045714Y-107387142D01*
X78998095Y-107434761D01*
X78902857Y-107482380D01*
X78712380Y-107482380D01*
X78617142Y-107434761D01*
G04 #@! TO.C,SW2*
X97452380Y-107434761D02*
X97547619Y-107482380D01*
X97738095Y-107482380D01*
X97833333Y-107434761D01*
X97880952Y-107339523D01*
X97880952Y-107291904D01*
X97833333Y-107196666D01*
X97738095Y-107149047D01*
X97595238Y-107149047D01*
X97500000Y-107101428D01*
X97452380Y-107006190D01*
X97452380Y-106958571D01*
X97500000Y-106863333D01*
X97595238Y-106815714D01*
X97738095Y-106815714D01*
X97833333Y-106863333D01*
X98166666Y-106815714D02*
X98547619Y-106815714D01*
X98309523Y-106482380D02*
X98309523Y-107339523D01*
X98357142Y-107434761D01*
X98452380Y-107482380D01*
X98547619Y-107482380D01*
X99309523Y-107482380D02*
X99309523Y-106958571D01*
X99261904Y-106863333D01*
X99166666Y-106815714D01*
X98976190Y-106815714D01*
X98880952Y-106863333D01*
X99309523Y-107434761D02*
X99214285Y-107482380D01*
X98976190Y-107482380D01*
X98880952Y-107434761D01*
X98833333Y-107339523D01*
X98833333Y-107244285D01*
X98880952Y-107149047D01*
X98976190Y-107101428D01*
X99214285Y-107101428D01*
X99309523Y-107053809D01*
X99785714Y-107482380D02*
X99785714Y-106815714D01*
X99785714Y-107006190D02*
X99833333Y-106910952D01*
X99880952Y-106863333D01*
X99976190Y-106815714D01*
X100071428Y-106815714D01*
X100261904Y-106815714D02*
X100642857Y-106815714D01*
X100404761Y-106482380D02*
X100404761Y-107339523D01*
X100452380Y-107434761D01*
X100547619Y-107482380D01*
X100642857Y-107482380D01*
G04 #@! TO.C,U1*
X84861428Y-116241666D02*
X85337619Y-116241666D01*
X84766190Y-116527380D02*
X85099523Y-115527380D01*
X85432857Y-116527380D01*
X85623333Y-115527380D02*
X86194761Y-115527380D01*
X85909047Y-116527380D02*
X85909047Y-115527380D01*
X86385238Y-115860714D02*
X86766190Y-115860714D01*
X86528095Y-115527380D02*
X86528095Y-116384523D01*
X86575714Y-116479761D01*
X86670952Y-116527380D01*
X86766190Y-116527380D01*
X87099523Y-116527380D02*
X87099523Y-115860714D01*
X87099523Y-115527380D02*
X87051904Y-115575000D01*
X87099523Y-115622619D01*
X87147142Y-115575000D01*
X87099523Y-115527380D01*
X87099523Y-115622619D01*
X87575714Y-115860714D02*
X87575714Y-116527380D01*
X87575714Y-115955952D02*
X87623333Y-115908333D01*
X87718571Y-115860714D01*
X87861428Y-115860714D01*
X87956666Y-115908333D01*
X88004285Y-116003571D01*
X88004285Y-116527380D01*
X88385238Y-115860714D02*
X88623333Y-116527380D01*
X88861428Y-115860714D02*
X88623333Y-116527380D01*
X88528095Y-116765476D01*
X88480476Y-116813095D01*
X88385238Y-116860714D01*
X89385238Y-115955952D02*
X89290000Y-115908333D01*
X89242380Y-115860714D01*
X89194761Y-115765476D01*
X89194761Y-115717857D01*
X89242380Y-115622619D01*
X89290000Y-115575000D01*
X89385238Y-115527380D01*
X89575714Y-115527380D01*
X89670952Y-115575000D01*
X89718571Y-115622619D01*
X89766190Y-115717857D01*
X89766190Y-115765476D01*
X89718571Y-115860714D01*
X89670952Y-115908333D01*
X89575714Y-115955952D01*
X89385238Y-115955952D01*
X89290000Y-116003571D01*
X89242380Y-116051190D01*
X89194761Y-116146428D01*
X89194761Y-116336904D01*
X89242380Y-116432142D01*
X89290000Y-116479761D01*
X89385238Y-116527380D01*
X89575714Y-116527380D01*
X89670952Y-116479761D01*
X89718571Y-116432142D01*
X89766190Y-116336904D01*
X89766190Y-116146428D01*
X89718571Y-116051190D01*
X89670952Y-116003571D01*
X89575714Y-115955952D01*
X90670952Y-115527380D02*
X90194761Y-115527380D01*
X90147142Y-116003571D01*
X90194761Y-115955952D01*
X90290000Y-115908333D01*
X90528095Y-115908333D01*
X90623333Y-115955952D01*
X90670952Y-116003571D01*
X90718571Y-116098809D01*
X90718571Y-116336904D01*
X90670952Y-116432142D01*
X90623333Y-116479761D01*
X90528095Y-116527380D01*
X90290000Y-116527380D01*
X90194761Y-116479761D01*
X90147142Y-116432142D01*
G04 #@! TO.C,U2*
X89352380Y-104727142D02*
X88352380Y-104727142D01*
X89352380Y-103774761D02*
X89352380Y-104250952D01*
X88352380Y-104250952D01*
X89352380Y-103441428D02*
X88352380Y-103441428D01*
X88352380Y-103203333D01*
X88400000Y-103060476D01*
X88495238Y-102965238D01*
X88590476Y-102917619D01*
X88780952Y-102870000D01*
X88923809Y-102870000D01*
X89114285Y-102917619D01*
X89209523Y-102965238D01*
X89304761Y-103060476D01*
X89352380Y-103203333D01*
X89352380Y-103441428D01*
X88352380Y-102536666D02*
X88352380Y-101870000D01*
X89352380Y-102298571D01*
X88685714Y-101060476D02*
X89352380Y-101060476D01*
X88304761Y-101298571D02*
X89019047Y-101536666D01*
X89019047Y-100917619D01*
G04 #@! TD*
M02*
