M48
;DRILL file {KiCad (5.0.1-3-g963ef8bb5)} date 2019 February 13, Wednesday 22:09:45
;FORMAT={-:-/ absolute / inch / decimal}
FMAT,2
INCH,TZ
T1C0.0157
T2C0.0295
T3C0.0315
T4C0.0354
T5C0.0394
T6C0.0433
%
G90
G05
M72
T1
X3.5133Y-4.4961
T2
X3.05Y-4.4
X3.1287Y-4.4
T3
X3.3Y-3.9
X3.3Y-4.2
X3.4Y-3.9
X3.4Y-4.2
X3.5Y-3.9
X3.5Y-4.2
X3.6Y-3.9
X3.6Y-4.2
T4
X2.75Y-4.3
X2.75Y-4.3984
X2.75Y-4.4969
X2.8799Y-4.3
X2.8799Y-4.3984
X2.8799Y-4.4969
T5
X3.3Y-3.75
X3.4Y-3.75
X3.5Y-3.75
X3.6Y-3.75
T6
X2.8941Y-3.95
X2.8941Y-4.1272
X3.15Y-3.95
X3.15Y-4.1272
X3.75Y-3.95
X3.75Y-4.1272
X4.0059Y-3.95
X4.0059Y-4.1272
T0
M30
