G04 #@! TF.GenerationSoftware,KiCad,Pcbnew,(5.0.1-3-g963ef8bb5)*
G04 #@! TF.CreationDate,2019-02-13T22:27:56+01:00*
G04 #@! TF.ProjectId,main,6D61696E2E6B696361645F7063620000,rev?*
G04 #@! TF.SameCoordinates,Original*
G04 #@! TF.FileFunction,Copper,L2,Bot,Signal*
G04 #@! TF.FilePolarity,Positive*
%FSLAX46Y46*%
G04 Gerber Fmt 4.6, Leading zero omitted, Abs format (unit mm)*
G04 Created by KiCad (PCBNEW (5.0.1-3-g963ef8bb5)) date 2019 February 13, Wednesday 22:27:56*
%MOMM*%
%LPD*%
G01*
G04 APERTURE LIST*
G04 #@! TA.AperFunction,ComponentPad*
%ADD10R,1.700000X1.700000*%
G04 #@! TD*
G04 #@! TA.AperFunction,ComponentPad*
%ADD11O,1.700000X1.700000*%
G04 #@! TD*
G04 #@! TA.AperFunction,Conductor*
%ADD12C,0.100000*%
G04 #@! TD*
G04 #@! TA.AperFunction,ComponentPad*
%ADD13C,1.200000*%
G04 #@! TD*
G04 #@! TA.AperFunction,ComponentPad*
%ADD14O,1.200000X1.750000*%
G04 #@! TD*
G04 #@! TA.AperFunction,ComponentPad*
%ADD15C,2.000000*%
G04 #@! TD*
G04 #@! TA.AperFunction,ComponentPad*
%ADD16R,1.600000X1.600000*%
G04 #@! TD*
G04 #@! TA.AperFunction,ComponentPad*
%ADD17O,1.600000X1.600000*%
G04 #@! TD*
G04 #@! TA.AperFunction,ComponentPad*
%ADD18R,1.400000X1.400000*%
G04 #@! TD*
G04 #@! TA.AperFunction,ComponentPad*
%ADD19C,1.400000*%
G04 #@! TD*
G04 #@! TA.AperFunction,ViaPad*
%ADD20C,0.800000*%
G04 #@! TD*
G04 #@! TA.AperFunction,Conductor*
%ADD21C,0.250000*%
G04 #@! TD*
G04 APERTURE END LIST*
D10*
G04 #@! TO.P,J1,1*
G04 #@! TO.N,Net-(J1-Pad1)*
X91440000Y-95250000D03*
D11*
G04 #@! TO.P,J1,2*
G04 #@! TO.N,Net-(J1-Pad2)*
X88900000Y-95250000D03*
G04 #@! TO.P,J1,3*
G04 #@! TO.N,Net-(J1-Pad3)*
X86360000Y-95250000D03*
G04 #@! TO.P,J1,4*
G04 #@! TO.N,Net-(J1-Pad4)*
X83820000Y-95250000D03*
G04 #@! TD*
D12*
G04 #@! TO.N,Net-(J2-Pad1)*
G04 #@! TO.C,J2*
G36*
X77844505Y-110886204D02*
X77868773Y-110889804D01*
X77892572Y-110895765D01*
X77915671Y-110904030D01*
X77937850Y-110914520D01*
X77958893Y-110927132D01*
X77978599Y-110941747D01*
X77996777Y-110958223D01*
X78013253Y-110976401D01*
X78027868Y-110996107D01*
X78040480Y-111017150D01*
X78050970Y-111039329D01*
X78059235Y-111062428D01*
X78065196Y-111086227D01*
X78068796Y-111110495D01*
X78070000Y-111134999D01*
X78070000Y-112385001D01*
X78068796Y-112409505D01*
X78065196Y-112433773D01*
X78059235Y-112457572D01*
X78050970Y-112480671D01*
X78040480Y-112502850D01*
X78027868Y-112523893D01*
X78013253Y-112543599D01*
X77996777Y-112561777D01*
X77978599Y-112578253D01*
X77958893Y-112592868D01*
X77937850Y-112605480D01*
X77915671Y-112615970D01*
X77892572Y-112624235D01*
X77868773Y-112630196D01*
X77844505Y-112633796D01*
X77820001Y-112635000D01*
X77119999Y-112635000D01*
X77095495Y-112633796D01*
X77071227Y-112630196D01*
X77047428Y-112624235D01*
X77024329Y-112615970D01*
X77002150Y-112605480D01*
X76981107Y-112592868D01*
X76961401Y-112578253D01*
X76943223Y-112561777D01*
X76926747Y-112543599D01*
X76912132Y-112523893D01*
X76899520Y-112502850D01*
X76889030Y-112480671D01*
X76880765Y-112457572D01*
X76874804Y-112433773D01*
X76871204Y-112409505D01*
X76870000Y-112385001D01*
X76870000Y-111134999D01*
X76871204Y-111110495D01*
X76874804Y-111086227D01*
X76880765Y-111062428D01*
X76889030Y-111039329D01*
X76899520Y-111017150D01*
X76912132Y-110996107D01*
X76926747Y-110976401D01*
X76943223Y-110958223D01*
X76961401Y-110941747D01*
X76981107Y-110927132D01*
X77002150Y-110914520D01*
X77024329Y-110904030D01*
X77047428Y-110895765D01*
X77071227Y-110889804D01*
X77095495Y-110886204D01*
X77119999Y-110885000D01*
X77820001Y-110885000D01*
X77844505Y-110886204D01*
X77844505Y-110886204D01*
G37*
D13*
G04 #@! TD*
G04 #@! TO.P,J2,1*
G04 #@! TO.N,Net-(J2-Pad1)*
X77470000Y-111760000D03*
D14*
G04 #@! TO.P,J2,2*
G04 #@! TO.N,GND*
X79470000Y-111760000D03*
G04 #@! TD*
D15*
G04 #@! TO.P,SW1,2*
G04 #@! TO.N,setup*
X73510000Y-104830000D03*
G04 #@! TO.P,SW1,1*
G04 #@! TO.N,+3V3*
X73510000Y-100330000D03*
G04 #@! TO.P,SW1,2*
G04 #@! TO.N,setup*
X80010000Y-104830000D03*
G04 #@! TO.P,SW1,1*
G04 #@! TO.N,+3V3*
X80010000Y-100330000D03*
G04 #@! TD*
G04 #@! TO.P,SW2,1*
G04 #@! TO.N,+3V3*
X101750000Y-100330000D03*
G04 #@! TO.P,SW2,2*
G04 #@! TO.N,start*
X101750000Y-104830000D03*
G04 #@! TO.P,SW2,1*
G04 #@! TO.N,+3V3*
X95250000Y-100330000D03*
G04 #@! TO.P,SW2,2*
G04 #@! TO.N,start*
X95250000Y-104830000D03*
G04 #@! TD*
D16*
G04 #@! TO.P,U2,1*
G04 #@! TO.N,onoff*
X83820000Y-106680000D03*
D17*
G04 #@! TO.P,U2,5*
G04 #@! TO.N,Net-(J1-Pad1)*
X91440000Y-99060000D03*
G04 #@! TO.P,U2,2*
G04 #@! TO.N,Net-(R1-Pad1)*
X86360000Y-106680000D03*
G04 #@! TO.P,U2,6*
G04 #@! TO.N,Net-(J1-Pad2)*
X88900000Y-99060000D03*
G04 #@! TO.P,U2,3*
G04 #@! TO.N,Net-(R2-Pad2)*
X88900000Y-106680000D03*
G04 #@! TO.P,U2,7*
G04 #@! TO.N,Net-(J1-Pad3)*
X86360000Y-99060000D03*
G04 #@! TO.P,U2,4*
G04 #@! TO.N,playpause*
X91440000Y-106680000D03*
G04 #@! TO.P,U2,8*
G04 #@! TO.N,Net-(J1-Pad4)*
X83820000Y-99060000D03*
G04 #@! TD*
D18*
G04 #@! TO.P,SW3,1*
G04 #@! TO.N,Net-(J2-Pad1)*
X69850000Y-114220000D03*
D19*
G04 #@! TO.P,SW3,2*
G04 #@! TO.N,+3V3*
X69850000Y-111720000D03*
G04 #@! TO.P,SW3,3*
G04 #@! TO.N,N/C*
X69850000Y-109220000D03*
G04 #@! TO.P,SW3,4*
X73150000Y-114220000D03*
G04 #@! TO.P,SW3,5*
X73150000Y-111720000D03*
G04 #@! TO.P,SW3,6*
X73150000Y-109220000D03*
G04 #@! TD*
D20*
G04 #@! TO.N,setup*
X89238600Y-114201200D03*
G04 #@! TD*
D21*
G04 #@! TO.N,Net-(J1-Pad1)*
X91440000Y-99060000D02*
X91440000Y-95250000D01*
G04 #@! TO.N,Net-(J1-Pad2)*
X88900000Y-99060000D02*
X88900000Y-95250000D01*
G04 #@! TO.N,Net-(J1-Pad3)*
X86360000Y-99060000D02*
X86360000Y-95250000D01*
G04 #@! TO.N,Net-(J1-Pad4)*
X83820000Y-99060000D02*
X83820000Y-95250000D01*
G04 #@! TO.N,+3V3*
X69850000Y-111720000D02*
X71455400Y-110114600D01*
X71455400Y-110114600D02*
X71455400Y-102384600D01*
X71455400Y-102384600D02*
X73510000Y-100330000D01*
X80010000Y-100330000D02*
X73510000Y-100330000D01*
X95250000Y-100330000D02*
X101750000Y-100330000D01*
G04 #@! TO.N,setup*
X80010000Y-104830000D02*
X80010000Y-104972600D01*
X80010000Y-104972600D02*
X89238600Y-114201200D01*
G04 #@! TO.N,start*
X95250000Y-104830000D02*
X101750000Y-104830000D01*
G04 #@! TD*
M02*
